<mxfile host="app.diagrams.net" modified="2023-07-06T16:30:04.623Z" agent="Mozilla/5.0 (Macintosh; Intel Mac OS X 10_15_7) AppleWebKit/537.36 (KHTML, like Gecko) Chrome/114.0.0.0 Safari/537.36" etag="0LIBiogPZ6QeQJkBeYW0" version="21.3.4" type="device">
  <diagram name="Page-1" id="FAffgsmB4GX_opzOq12b">
    <mxGraphModel dx="2420" dy="800" grid="1" gridSize="10" guides="1" tooltips="1" connect="1" arrows="1" fold="1" page="1" pageScale="1" pageWidth="1169" pageHeight="827" math="0" shadow="0">
      <root>
        <mxCell id="0" />
        <mxCell id="1" parent="0" />
        <mxCell id="-wlyE-sO2jZst2v2E5xR-1" value="user" style="shape=umlActor;verticalLabelPosition=bottom;verticalAlign=top;html=1;outlineConnect=0;" vertex="1" parent="1">
          <mxGeometry x="58" y="387" width="30" height="60" as="geometry" />
        </mxCell>
        <mxCell id="-wlyE-sO2jZst2v2E5xR-3" value="" style="endArrow=none;dashed=1;html=1;rounded=0;" edge="1" parent="1">
          <mxGeometry width="50" height="50" relative="1" as="geometry">
            <mxPoint x="72" y="823" as="sourcePoint" />
            <mxPoint x="72.47" y="473" as="targetPoint" />
          </mxGeometry>
        </mxCell>
        <mxCell id="-wlyE-sO2jZst2v2E5xR-8" style="edgeStyle=orthogonalEdgeStyle;rounded=0;orthogonalLoop=1;jettySize=auto;html=1;entryX=0.25;entryY=1;entryDx=0;entryDy=0;" edge="1" parent="1" source="-wlyE-sO2jZst2v2E5xR-5" target="-wlyE-sO2jZst2v2E5xR-9">
          <mxGeometry relative="1" as="geometry">
            <mxPoint x="248" y="508" as="targetPoint" />
            <Array as="points">
              <mxPoint x="218" y="491" />
              <mxPoint x="218" y="491" />
            </Array>
          </mxGeometry>
        </mxCell>
        <mxCell id="-wlyE-sO2jZst2v2E5xR-5" value="1. Navigate to()" style="text;html=1;align=center;verticalAlign=middle;resizable=0;points=[];autosize=1;strokeColor=none;fillColor=none;" vertex="1" parent="1">
          <mxGeometry x="88" y="473" width="110" height="30" as="geometry" />
        </mxCell>
        <mxCell id="-wlyE-sO2jZst2v2E5xR-6" value="Login Page" style="rounded=0;whiteSpace=wrap;html=1;" vertex="1" parent="1">
          <mxGeometry x="228" y="403" width="110" height="36" as="geometry" />
        </mxCell>
        <mxCell id="-wlyE-sO2jZst2v2E5xR-7" value="" style="endArrow=none;dashed=1;html=1;rounded=0;entryX=0.5;entryY=1;entryDx=0;entryDy=0;" edge="1" parent="1" source="-wlyE-sO2jZst2v2E5xR-9" target="-wlyE-sO2jZst2v2E5xR-6">
          <mxGeometry width="50" height="50" relative="1" as="geometry">
            <mxPoint x="282.47" y="823" as="sourcePoint" />
            <mxPoint x="282.94000000000005" y="473" as="targetPoint" />
          </mxGeometry>
        </mxCell>
        <mxCell id="-wlyE-sO2jZst2v2E5xR-10" value="" style="endArrow=none;dashed=1;html=1;rounded=0;" edge="1" parent="1" source="-wlyE-sO2jZst2v2E5xR-14" target="-wlyE-sO2jZst2v2E5xR-9">
          <mxGeometry width="50" height="50" relative="1" as="geometry">
            <mxPoint x="282.47" y="823" as="sourcePoint" />
            <mxPoint x="282.94000000000005" y="473" as="targetPoint" />
          </mxGeometry>
        </mxCell>
        <mxCell id="-wlyE-sO2jZst2v2E5xR-9" value="" style="rounded=1;whiteSpace=wrap;html=1;fillColor=#003A70;strokeColor=none;fontColor=#ffffff;rotation=90;" vertex="1" parent="1">
          <mxGeometry x="258" y="493" width="50" height="20" as="geometry" />
        </mxCell>
        <mxCell id="-wlyE-sO2jZst2v2E5xR-12" value="" style="endArrow=none;dashed=1;html=1;rounded=0;entryX=-0.006;entryY=0.428;entryDx=0;entryDy=0;entryPerimeter=0;" edge="1" parent="1" target="-wlyE-sO2jZst2v2E5xR-13">
          <mxGeometry width="50" height="50" relative="1" as="geometry">
            <mxPoint x="72" y="583" as="sourcePoint" />
            <mxPoint x="112" y="563" as="targetPoint" />
          </mxGeometry>
        </mxCell>
        <mxCell id="-wlyE-sO2jZst2v2E5xR-21" style="edgeStyle=orthogonalEdgeStyle;rounded=0;orthogonalLoop=1;jettySize=auto;html=1;entryX=0.141;entryY=1.295;entryDx=0;entryDy=0;entryPerimeter=0;" edge="1" parent="1" source="-wlyE-sO2jZst2v2E5xR-13" target="-wlyE-sO2jZst2v2E5xR-14">
          <mxGeometry relative="1" as="geometry" />
        </mxCell>
        <mxCell id="-wlyE-sO2jZst2v2E5xR-13" value="2. Enter valid login info" style="text;html=1;align=center;verticalAlign=middle;resizable=0;points=[];autosize=1;strokeColor=none;fillColor=none;" vertex="1" parent="1">
          <mxGeometry x="88" y="543" width="140" height="30" as="geometry" />
        </mxCell>
        <mxCell id="-wlyE-sO2jZst2v2E5xR-15" value="" style="endArrow=none;dashed=1;html=1;rounded=0;" edge="1" parent="1" source="-wlyE-sO2jZst2v2E5xR-132" target="-wlyE-sO2jZst2v2E5xR-14">
          <mxGeometry width="50" height="50" relative="1" as="geometry">
            <mxPoint x="282.47" y="823" as="sourcePoint" />
            <mxPoint x="283" y="528" as="targetPoint" />
          </mxGeometry>
        </mxCell>
        <mxCell id="-wlyE-sO2jZst2v2E5xR-14" value="" style="rounded=1;whiteSpace=wrap;html=1;fillColor=#003a70;strokeColor=none;fontColor=#ffffff;rotation=90;" vertex="1" parent="1">
          <mxGeometry x="258" y="568" width="50" height="20" as="geometry" />
        </mxCell>
        <mxCell id="-wlyE-sO2jZst2v2E5xR-17" value=":LoginController" style="rounded=0;whiteSpace=wrap;html=1;" vertex="1" parent="1">
          <mxGeometry x="496" y="401" width="110" height="36" as="geometry" />
        </mxCell>
        <mxCell id="-wlyE-sO2jZst2v2E5xR-18" value="" style="endArrow=none;dashed=1;html=1;rounded=0;entryX=0.5;entryY=1;entryDx=0;entryDy=0;" edge="1" parent="1" source="-wlyE-sO2jZst2v2E5xR-22" target="-wlyE-sO2jZst2v2E5xR-17">
          <mxGeometry width="50" height="50" relative="1" as="geometry">
            <mxPoint x="551" y="825" as="sourcePoint" />
            <mxPoint x="556.53" y="595" as="targetPoint" />
          </mxGeometry>
        </mxCell>
        <mxCell id="-wlyE-sO2jZst2v2E5xR-19" value="" style="endArrow=none;html=1;rounded=0;exitX=0.75;exitY=0;exitDx=0;exitDy=0;entryX=-0.025;entryY=0.582;entryDx=0;entryDy=0;entryPerimeter=0;" edge="1" parent="1" source="-wlyE-sO2jZst2v2E5xR-14">
          <mxGeometry width="50" height="50" relative="1" as="geometry">
            <mxPoint x="358" y="683" as="sourcePoint" />
            <mxPoint x="325.5" y="590.4599999999998" as="targetPoint" />
          </mxGeometry>
        </mxCell>
        <mxCell id="-wlyE-sO2jZst2v2E5xR-25" style="edgeStyle=orthogonalEdgeStyle;rounded=0;orthogonalLoop=1;jettySize=auto;html=1;entryX=0.095;entryY=1.005;entryDx=0;entryDy=0;entryPerimeter=0;" edge="1" parent="1" target="-wlyE-sO2jZst2v2E5xR-22">
          <mxGeometry relative="1" as="geometry">
            <mxPoint x="471" y="587.9999999999998" as="sourcePoint" />
          </mxGeometry>
        </mxCell>
        <mxCell id="-wlyE-sO2jZst2v2E5xR-20" value="3. Submit form:&lt;br&gt;{email: &#39;johndoe@g.com&#39;,&lt;br style=&quot;border-color: var(--border-color);&quot;&gt;password :&#39;p@Ssword&#39; }" style="text;html=1;align=center;verticalAlign=middle;resizable=0;points=[];autosize=1;strokeColor=none;fillColor=none;" vertex="1" parent="1">
          <mxGeometry x="320" y="558" width="160" height="60" as="geometry" />
        </mxCell>
        <mxCell id="-wlyE-sO2jZst2v2E5xR-24" value="" style="endArrow=none;dashed=1;html=1;rounded=0;entryX=1;entryY=0.5;entryDx=0;entryDy=0;" edge="1" parent="1" source="-wlyE-sO2jZst2v2E5xR-115" target="-wlyE-sO2jZst2v2E5xR-22">
          <mxGeometry width="50" height="50" relative="1" as="geometry">
            <mxPoint x="551" y="825" as="sourcePoint" />
            <mxPoint x="551" y="437" as="targetPoint" />
          </mxGeometry>
        </mxCell>
        <mxCell id="-wlyE-sO2jZst2v2E5xR-22" value="" style="rounded=1;whiteSpace=wrap;html=1;fillColor=#003A70;strokeColor=none;fontColor=#ffffff;rotation=90;" vertex="1" parent="1">
          <mxGeometry x="502.5" y="613.5" width="97" height="20" as="geometry" />
        </mxCell>
        <mxCell id="-wlyE-sO2jZst2v2E5xR-26" value=":AuthService" style="rounded=0;whiteSpace=wrap;html=1;" vertex="1" parent="1">
          <mxGeometry x="790" y="401" width="110" height="36" as="geometry" />
        </mxCell>
        <mxCell id="-wlyE-sO2jZst2v2E5xR-27" value="" style="endArrow=none;dashed=1;html=1;rounded=0;entryX=0.5;entryY=1;entryDx=0;entryDy=0;" edge="1" parent="1" source="-wlyE-sO2jZst2v2E5xR-28" target="-wlyE-sO2jZst2v2E5xR-26">
          <mxGeometry width="50" height="50" relative="1" as="geometry">
            <mxPoint x="845" y="825" as="sourcePoint" />
            <mxPoint x="655" y="447" as="targetPoint" />
          </mxGeometry>
        </mxCell>
        <mxCell id="-wlyE-sO2jZst2v2E5xR-29" value="" style="endArrow=none;dashed=1;html=1;rounded=0;entryX=1;entryY=0.5;entryDx=0;entryDy=0;" edge="1" parent="1" source="-wlyE-sO2jZst2v2E5xR-104" target="-wlyE-sO2jZst2v2E5xR-28">
          <mxGeometry width="50" height="50" relative="1" as="geometry">
            <mxPoint x="845" y="825" as="sourcePoint" />
            <mxPoint x="845" y="437" as="targetPoint" />
          </mxGeometry>
        </mxCell>
        <mxCell id="-wlyE-sO2jZst2v2E5xR-28" value="" style="rounded=1;whiteSpace=wrap;html=1;fillColor=#003A70;strokeColor=none;fontColor=#ffffff;rotation=90;" vertex="1" parent="1">
          <mxGeometry x="820" y="600" width="50" height="20" as="geometry" />
        </mxCell>
        <mxCell id="-wlyE-sO2jZst2v2E5xR-32" style="edgeStyle=orthogonalEdgeStyle;rounded=0;orthogonalLoop=1;jettySize=auto;html=1;entryX=0.141;entryY=0.881;entryDx=0;entryDy=0;entryPerimeter=0;exitX=1.023;exitY=0.555;exitDx=0;exitDy=0;exitPerimeter=0;" edge="1" parent="1" source="-wlyE-sO2jZst2v2E5xR-30" target="-wlyE-sO2jZst2v2E5xR-28">
          <mxGeometry relative="1" as="geometry">
            <mxPoint x="800" y="605" as="sourcePoint" />
          </mxGeometry>
        </mxCell>
        <mxCell id="-wlyE-sO2jZst2v2E5xR-30" value="4. Verify encrypted login info&lt;br&gt;POST &#39;/auth-service/login&#39;" style="text;html=1;align=center;verticalAlign=middle;resizable=0;points=[];autosize=1;strokeColor=none;fillColor=none;" vertex="1" parent="1">
          <mxGeometry x="615" y="580" width="170" height="40" as="geometry" />
        </mxCell>
        <mxCell id="-wlyE-sO2jZst2v2E5xR-31" value="" style="endArrow=none;html=1;rounded=0;entryX=0.204;entryY=0.03;entryDx=0;entryDy=0;entryPerimeter=0;exitX=-0.022;exitY=0.514;exitDx=0;exitDy=0;exitPerimeter=0;" edge="1" parent="1" source="-wlyE-sO2jZst2v2E5xR-30" target="-wlyE-sO2jZst2v2E5xR-22">
          <mxGeometry width="50" height="50" relative="1" as="geometry">
            <mxPoint x="605" y="745" as="sourcePoint" />
            <mxPoint x="655" y="695" as="targetPoint" />
          </mxGeometry>
        </mxCell>
        <mxCell id="-wlyE-sO2jZst2v2E5xR-33" value=":AuthDAO" style="rounded=0;whiteSpace=wrap;html=1;" vertex="1" parent="1">
          <mxGeometry x="1020" y="401" width="110" height="36" as="geometry" />
        </mxCell>
        <mxCell id="-wlyE-sO2jZst2v2E5xR-34" value="" style="endArrow=none;dashed=1;html=1;rounded=0;entryX=0.5;entryY=1;entryDx=0;entryDy=0;" edge="1" parent="1" source="-wlyE-sO2jZst2v2E5xR-35" target="-wlyE-sO2jZst2v2E5xR-33">
          <mxGeometry width="50" height="50" relative="1" as="geometry">
            <mxPoint x="1075" y="825" as="sourcePoint" />
            <mxPoint x="855" y="447" as="targetPoint" />
          </mxGeometry>
        </mxCell>
        <mxCell id="-wlyE-sO2jZst2v2E5xR-36" value="" style="endArrow=none;dashed=1;html=1;rounded=0;entryX=1;entryY=0.5;entryDx=0;entryDy=0;" edge="1" parent="1" target="-wlyE-sO2jZst2v2E5xR-35">
          <mxGeometry width="50" height="50" relative="1" as="geometry">
            <mxPoint x="1075" y="825" as="sourcePoint" />
            <mxPoint x="1075" y="437" as="targetPoint" />
          </mxGeometry>
        </mxCell>
        <mxCell id="-wlyE-sO2jZst2v2E5xR-35" value="" style="rounded=1;whiteSpace=wrap;html=1;fillColor=#003A70;strokeColor=none;fontColor=#ffffff;rotation=90;" vertex="1" parent="1">
          <mxGeometry x="1050" y="655" width="50" height="20" as="geometry" />
        </mxCell>
        <mxCell id="-wlyE-sO2jZst2v2E5xR-39" style="edgeStyle=orthogonalEdgeStyle;rounded=0;orthogonalLoop=1;jettySize=auto;html=1;entryX=0.119;entryY=0.974;entryDx=0;entryDy=0;entryPerimeter=0;" edge="1" parent="1" source="-wlyE-sO2jZst2v2E5xR-37" target="-wlyE-sO2jZst2v2E5xR-35">
          <mxGeometry relative="1" as="geometry" />
        </mxCell>
        <mxCell id="-wlyE-sO2jZst2v2E5xR-37" value="5. VerifyUser(loginData)" style="text;html=1;align=center;verticalAlign=middle;resizable=0;points=[];autosize=1;strokeColor=none;fillColor=none;" vertex="1" parent="1">
          <mxGeometry x="880" y="650" width="150" height="30" as="geometry" />
        </mxCell>
        <mxCell id="-wlyE-sO2jZst2v2E5xR-119" style="edgeStyle=orthogonalEdgeStyle;rounded=0;orthogonalLoop=1;jettySize=auto;html=1;entryX=0.813;entryY=0.027;entryDx=0;entryDy=0;entryPerimeter=0;" edge="1" parent="1" source="-wlyE-sO2jZst2v2E5xR-40" target="-wlyE-sO2jZst2v2E5xR-22">
          <mxGeometry relative="1" as="geometry" />
        </mxCell>
        <mxCell id="-wlyE-sO2jZst2v2E5xR-40" value="6. response: &lt;br&gt;{ code: 200, message: &#39;success&#39;}" style="text;html=1;align=left;verticalAlign=middle;resizable=0;points=[];autosize=1;strokeColor=none;fillColor=none;" vertex="1" parent="1">
          <mxGeometry x="590" y="633" width="200" height="40" as="geometry" />
        </mxCell>
        <mxCell id="-wlyE-sO2jZst2v2E5xR-41" value="" style="endArrow=none;html=1;rounded=0;entryX=0.75;entryY=1;entryDx=0;entryDy=0;exitX=1.013;exitY=0.507;exitDx=0;exitDy=0;exitPerimeter=0;" edge="1" parent="1" source="-wlyE-sO2jZst2v2E5xR-40" target="-wlyE-sO2jZst2v2E5xR-28">
          <mxGeometry width="50" height="50" relative="1" as="geometry">
            <mxPoint x="851.6799999999998" y="647.0799999999999" as="sourcePoint" />
            <mxPoint x="810" y="735" as="targetPoint" />
          </mxGeometry>
        </mxCell>
        <mxCell id="-wlyE-sO2jZst2v2E5xR-46" style="edgeStyle=orthogonalEdgeStyle;rounded=0;orthogonalLoop=1;jettySize=auto;html=1;entryX=0.5;entryY=0;entryDx=0;entryDy=0;" edge="1" parent="1" source="-wlyE-sO2jZst2v2E5xR-43" target="-wlyE-sO2jZst2v2E5xR-132">
          <mxGeometry relative="1" as="geometry" />
        </mxCell>
        <mxCell id="-wlyE-sO2jZst2v2E5xR-43" value="7. save response user data" style="text;html=1;align=center;verticalAlign=middle;resizable=0;points=[];autosize=1;strokeColor=none;fillColor=none;" vertex="1" parent="1">
          <mxGeometry x="330" y="650" width="170" height="30" as="geometry" />
        </mxCell>
        <mxCell id="-wlyE-sO2jZst2v2E5xR-44" value="" style="endArrow=none;html=1;rounded=0;entryX=0.899;entryY=0.956;entryDx=0;entryDy=0;entryPerimeter=0;exitX=1.039;exitY=0.479;exitDx=0;exitDy=0;exitPerimeter=0;" edge="1" parent="1" source="-wlyE-sO2jZst2v2E5xR-43" target="-wlyE-sO2jZst2v2E5xR-22">
          <mxGeometry width="50" height="50" relative="1" as="geometry">
            <mxPoint x="505.1500000000001" y="692.5699999999999" as="sourcePoint" />
            <mxPoint x="486" y="745" as="targetPoint" />
          </mxGeometry>
        </mxCell>
        <mxCell id="-wlyE-sO2jZst2v2E5xR-49" style="edgeStyle=orthogonalEdgeStyle;rounded=0;orthogonalLoop=1;jettySize=auto;html=1;" edge="1" parent="1" source="-wlyE-sO2jZst2v2E5xR-47">
          <mxGeometry relative="1" as="geometry">
            <mxPoint x="70" y="800" as="targetPoint" />
          </mxGeometry>
        </mxCell>
        <mxCell id="-wlyE-sO2jZst2v2E5xR-47" value="8. display response" style="text;html=1;align=center;verticalAlign=middle;resizable=0;points=[];autosize=1;strokeColor=none;fillColor=none;" vertex="1" parent="1">
          <mxGeometry x="110" y="785" width="130" height="30" as="geometry" />
        </mxCell>
        <mxCell id="-wlyE-sO2jZst2v2E5xR-48" value="" style="endArrow=none;html=1;rounded=0;entryX=0.75;entryY=1;entryDx=0;entryDy=0;exitX=1.002;exitY=0.458;exitDx=0;exitDy=0;exitPerimeter=0;" edge="1" parent="1" source="-wlyE-sO2jZst2v2E5xR-47" target="-wlyE-sO2jZst2v2E5xR-45">
          <mxGeometry width="50" height="50" relative="1" as="geometry">
            <mxPoint x="143" y="798" as="sourcePoint" />
            <mxPoint x="193" y="748" as="targetPoint" />
          </mxGeometry>
        </mxCell>
        <mxCell id="-wlyE-sO2jZst2v2E5xR-52" value="&lt;h2&gt;Login with password&lt;/h2&gt;" style="text;html=1;align=center;verticalAlign=middle;resizable=0;points=[];autosize=1;strokeColor=none;fillColor=none;" vertex="1" parent="1">
          <mxGeometry x="40" y="40" width="200" height="60" as="geometry" />
        </mxCell>
        <mxCell id="-wlyE-sO2jZst2v2E5xR-57" value="" style="endArrow=none;html=1;rounded=0;exitX=0.75;exitY=0;exitDx=0;exitDy=0;entryX=-0.018;entryY=0.421;entryDx=0;entryDy=0;entryPerimeter=0;" edge="1" parent="1" source="-wlyE-sO2jZst2v2E5xR-28" target="-wlyE-sO2jZst2v2E5xR-37">
          <mxGeometry width="50" height="50" relative="1" as="geometry">
            <mxPoint x="930" y="560" as="sourcePoint" />
            <mxPoint x="980" y="510" as="targetPoint" />
          </mxGeometry>
        </mxCell>
        <mxCell id="-wlyE-sO2jZst2v2E5xR-105" value="" style="endArrow=none;dashed=1;html=1;rounded=0;entryX=1;entryY=0.5;entryDx=0;entryDy=0;" edge="1" parent="1" source="-wlyE-sO2jZst2v2E5xR-109" target="-wlyE-sO2jZst2v2E5xR-104">
          <mxGeometry width="50" height="50" relative="1" as="geometry">
            <mxPoint x="845" y="825" as="sourcePoint" />
            <mxPoint x="845" y="660" as="targetPoint" />
          </mxGeometry>
        </mxCell>
        <mxCell id="-wlyE-sO2jZst2v2E5xR-104" value="" style="rounded=1;whiteSpace=wrap;html=1;fillColor=#003A70;strokeColor=none;fontColor=#ffffff;rotation=90;" vertex="1" parent="1">
          <mxGeometry x="820" y="663" width="50" height="20" as="geometry" />
        </mxCell>
        <mxCell id="-wlyE-sO2jZst2v2E5xR-120" style="edgeStyle=orthogonalEdgeStyle;rounded=0;orthogonalLoop=1;jettySize=auto;html=1;entryX=0.386;entryY=-0.155;entryDx=0;entryDy=0;entryPerimeter=0;" edge="1" parent="1" source="-wlyE-sO2jZst2v2E5xR-106" target="-wlyE-sO2jZst2v2E5xR-115">
          <mxGeometry relative="1" as="geometry" />
        </mxCell>
        <mxCell id="-wlyE-sO2jZst2v2E5xR-106" value="6. response:&lt;br&gt;{code: 409, message: &#39;Data is invalid&#39;}" style="text;html=1;align=left;verticalAlign=middle;resizable=0;points=[];autosize=1;strokeColor=none;fillColor=none;" vertex="1" parent="1">
          <mxGeometry x="590" y="673" width="230" height="40" as="geometry" />
        </mxCell>
        <mxCell id="-wlyE-sO2jZst2v2E5xR-121" style="edgeStyle=orthogonalEdgeStyle;rounded=0;orthogonalLoop=1;jettySize=auto;html=1;entryX=0.25;entryY=0;entryDx=0;entryDy=0;" edge="1" parent="1" source="-wlyE-sO2jZst2v2E5xR-107" target="-wlyE-sO2jZst2v2E5xR-117">
          <mxGeometry relative="1" as="geometry" />
        </mxCell>
        <mxCell id="-wlyE-sO2jZst2v2E5xR-107" value="6. response:&lt;br&gt;{code: 500, message: &#39;error&#39;}" style="text;html=1;align=left;verticalAlign=middle;resizable=0;points=[];autosize=1;strokeColor=none;fillColor=none;" vertex="1" parent="1">
          <mxGeometry x="590" y="715" width="180" height="40" as="geometry" />
        </mxCell>
        <mxCell id="-wlyE-sO2jZst2v2E5xR-108" value="" style="endArrow=none;html=1;rounded=0;entryX=0.5;entryY=1;entryDx=0;entryDy=0;exitX=1.008;exitY=0.58;exitDx=0;exitDy=0;exitPerimeter=0;" edge="1" parent="1" source="-wlyE-sO2jZst2v2E5xR-106" target="-wlyE-sO2jZst2v2E5xR-104">
          <mxGeometry width="50" height="50" relative="1" as="geometry">
            <mxPoint x="750" y="702" as="sourcePoint" />
            <mxPoint x="792" y="697" as="targetPoint" />
          </mxGeometry>
        </mxCell>
        <mxCell id="-wlyE-sO2jZst2v2E5xR-110" value="" style="endArrow=none;dashed=1;html=1;rounded=0;entryX=1;entryY=0.5;entryDx=0;entryDy=0;" edge="1" parent="1" target="-wlyE-sO2jZst2v2E5xR-109">
          <mxGeometry width="50" height="50" relative="1" as="geometry">
            <mxPoint x="845" y="825" as="sourcePoint" />
            <mxPoint x="845" y="723" as="targetPoint" />
          </mxGeometry>
        </mxCell>
        <mxCell id="-wlyE-sO2jZst2v2E5xR-109" value="" style="rounded=1;whiteSpace=wrap;html=1;fillColor=#003A70;strokeColor=none;fontColor=#ffffff;rotation=90;" vertex="1" parent="1">
          <mxGeometry x="820" y="725" width="50" height="20" as="geometry" />
        </mxCell>
        <mxCell id="-wlyE-sO2jZst2v2E5xR-111" value="" style="endArrow=none;html=1;rounded=0;entryX=0.987;entryY=0.545;entryDx=0;entryDy=0;exitX=0.5;exitY=1;exitDx=0;exitDy=0;entryPerimeter=0;" edge="1" parent="1" source="-wlyE-sO2jZst2v2E5xR-109" target="-wlyE-sO2jZst2v2E5xR-107">
          <mxGeometry width="50" height="50" relative="1" as="geometry">
            <mxPoint x="832" y="716" as="sourcePoint" />
            <mxPoint x="845" y="683" as="targetPoint" />
          </mxGeometry>
        </mxCell>
        <mxCell id="-wlyE-sO2jZst2v2E5xR-116" value="" style="endArrow=none;dashed=1;html=1;rounded=0;entryX=1;entryY=0.5;entryDx=0;entryDy=0;" edge="1" parent="1" source="-wlyE-sO2jZst2v2E5xR-117" target="-wlyE-sO2jZst2v2E5xR-115">
          <mxGeometry width="50" height="50" relative="1" as="geometry">
            <mxPoint x="551" y="825" as="sourcePoint" />
            <mxPoint x="551" y="672" as="targetPoint" />
          </mxGeometry>
        </mxCell>
        <mxCell id="-wlyE-sO2jZst2v2E5xR-115" value="" style="rounded=1;whiteSpace=wrap;html=1;fillColor=#003A70;strokeColor=none;fontColor=#ffffff;rotation=90;" vertex="1" parent="1">
          <mxGeometry x="527.25" y="690.25" width="47.5" height="20" as="geometry" />
        </mxCell>
        <mxCell id="-wlyE-sO2jZst2v2E5xR-118" value="" style="endArrow=none;dashed=1;html=1;rounded=0;entryX=1;entryY=0.5;entryDx=0;entryDy=0;" edge="1" parent="1" target="-wlyE-sO2jZst2v2E5xR-117">
          <mxGeometry width="50" height="50" relative="1" as="geometry">
            <mxPoint x="551" y="825" as="sourcePoint" />
            <mxPoint x="551" y="724" as="targetPoint" />
          </mxGeometry>
        </mxCell>
        <mxCell id="-wlyE-sO2jZst2v2E5xR-117" value="" style="rounded=1;whiteSpace=wrap;html=1;fillColor=#003A70;strokeColor=none;fontColor=#ffffff;rotation=90;" vertex="1" parent="1">
          <mxGeometry x="527.25" y="745" width="47.5" height="20" as="geometry" />
        </mxCell>
        <mxCell id="-wlyE-sO2jZst2v2E5xR-128" style="edgeStyle=orthogonalEdgeStyle;rounded=0;orthogonalLoop=1;jettySize=auto;html=1;entryX=0.25;entryY=0;entryDx=0;entryDy=0;" edge="1" parent="1" source="-wlyE-sO2jZst2v2E5xR-122" target="-wlyE-sO2jZst2v2E5xR-45">
          <mxGeometry relative="1" as="geometry" />
        </mxCell>
        <mxCell id="-wlyE-sO2jZst2v2E5xR-122" value="7. response error message" style="text;html=1;align=center;verticalAlign=middle;resizable=0;points=[];autosize=1;strokeColor=none;fillColor=none;" vertex="1" parent="1">
          <mxGeometry x="345" y="683" width="170" height="30" as="geometry" />
        </mxCell>
        <mxCell id="-wlyE-sO2jZst2v2E5xR-125" value="" style="endArrow=none;html=1;rounded=0;entryX=0.5;entryY=1;entryDx=0;entryDy=0;" edge="1" parent="1" target="-wlyE-sO2jZst2v2E5xR-115">
          <mxGeometry width="50" height="50" relative="1" as="geometry">
            <mxPoint x="510" y="698" as="sourcePoint" />
            <mxPoint x="552" y="672" as="targetPoint" />
          </mxGeometry>
        </mxCell>
        <mxCell id="-wlyE-sO2jZst2v2E5xR-126" value="" style="endArrow=none;html=1;rounded=0;entryX=0.5;entryY=1;entryDx=0;entryDy=0;exitX=1.009;exitY=0.424;exitDx=0;exitDy=0;exitPerimeter=0;" edge="1" parent="1" source="-wlyE-sO2jZst2v2E5xR-127" target="-wlyE-sO2jZst2v2E5xR-117">
          <mxGeometry width="50" height="50" relative="1" as="geometry">
            <mxPoint x="510" y="755" as="sourcePoint" />
            <mxPoint x="562" y="682" as="targetPoint" />
          </mxGeometry>
        </mxCell>
        <mxCell id="-wlyE-sO2jZst2v2E5xR-129" style="edgeStyle=orthogonalEdgeStyle;rounded=0;orthogonalLoop=1;jettySize=auto;html=1;entryX=0.25;entryY=0;entryDx=0;entryDy=0;" edge="1" parent="1" source="-wlyE-sO2jZst2v2E5xR-127" target="-wlyE-sO2jZst2v2E5xR-45">
          <mxGeometry relative="1" as="geometry" />
        </mxCell>
        <mxCell id="-wlyE-sO2jZst2v2E5xR-127" value="7. response error message" style="text;html=1;align=center;verticalAlign=middle;resizable=0;points=[];autosize=1;strokeColor=none;fillColor=none;" vertex="1" parent="1">
          <mxGeometry x="350" y="725" width="170" height="30" as="geometry" />
        </mxCell>
        <mxCell id="-wlyE-sO2jZst2v2E5xR-131" value="" style="endArrow=none;dashed=1;html=1;rounded=0;" edge="1" parent="1" target="-wlyE-sO2jZst2v2E5xR-45">
          <mxGeometry width="50" height="50" relative="1" as="geometry">
            <mxPoint x="282.47" y="823" as="sourcePoint" />
            <mxPoint x="283" y="603" as="targetPoint" />
          </mxGeometry>
        </mxCell>
        <mxCell id="-wlyE-sO2jZst2v2E5xR-45" value="" style="rounded=1;whiteSpace=wrap;html=1;fillColor=#003A70;strokeColor=none;fontColor=#ffffff;rotation=90;" vertex="1" parent="1">
          <mxGeometry x="258" y="785" width="50" height="20" as="geometry" />
        </mxCell>
        <mxCell id="-wlyE-sO2jZst2v2E5xR-133" value="" style="endArrow=none;dashed=1;html=1;rounded=0;" edge="1" parent="1" source="-wlyE-sO2jZst2v2E5xR-45" target="-wlyE-sO2jZst2v2E5xR-132">
          <mxGeometry width="50" height="50" relative="1" as="geometry">
            <mxPoint x="283" y="770" as="sourcePoint" />
            <mxPoint x="283" y="603" as="targetPoint" />
          </mxGeometry>
        </mxCell>
        <mxCell id="-wlyE-sO2jZst2v2E5xR-132" value="" style="rounded=1;whiteSpace=wrap;html=1;fillColor=#003A70;strokeColor=none;fontColor=#ffffff;rotation=90;" vertex="1" parent="1">
          <mxGeometry x="258" y="725" width="50" height="20" as="geometry" />
        </mxCell>
        <mxCell id="-wlyE-sO2jZst2v2E5xR-137" style="edgeStyle=orthogonalEdgeStyle;rounded=0;orthogonalLoop=1;jettySize=auto;html=1;" edge="1" parent="1" source="-wlyE-sO2jZst2v2E5xR-134">
          <mxGeometry relative="1" as="geometry">
            <mxPoint x="69.99999999999977" y="748" as="targetPoint" />
          </mxGeometry>
        </mxCell>
        <mxCell id="-wlyE-sO2jZst2v2E5xR-134" value="8. redirect to Home page" style="text;html=1;align=center;verticalAlign=middle;resizable=0;points=[];autosize=1;strokeColor=none;fillColor=none;" vertex="1" parent="1">
          <mxGeometry x="93" y="733" width="160" height="30" as="geometry" />
        </mxCell>
        <mxCell id="-wlyE-sO2jZst2v2E5xR-136" value="" style="endArrow=none;html=1;rounded=0;entryX=0.75;entryY=1;entryDx=0;entryDy=0;exitX=1.015;exitY=0.6;exitDx=0;exitDy=0;exitPerimeter=0;" edge="1" parent="1" source="-wlyE-sO2jZst2v2E5xR-134" target="-wlyE-sO2jZst2v2E5xR-132">
          <mxGeometry width="50" height="50" relative="1" as="geometry">
            <mxPoint x="170" y="700" as="sourcePoint" />
            <mxPoint x="220" y="650" as="targetPoint" />
          </mxGeometry>
        </mxCell>
        <mxCell id="-wlyE-sO2jZst2v2E5xR-139" value="user" style="shape=umlActor;verticalLabelPosition=bottom;verticalAlign=top;html=1;outlineConnect=0;" vertex="1" parent="1">
          <mxGeometry x="1227" y="388" width="30" height="60" as="geometry" />
        </mxCell>
        <mxCell id="-wlyE-sO2jZst2v2E5xR-140" value="" style="endArrow=none;dashed=1;html=1;rounded=0;" edge="1" parent="1">
          <mxGeometry width="50" height="50" relative="1" as="geometry">
            <mxPoint x="1241" y="824" as="sourcePoint" />
            <mxPoint x="1241.47" y="474" as="targetPoint" />
          </mxGeometry>
        </mxCell>
        <mxCell id="-wlyE-sO2jZst2v2E5xR-141" style="edgeStyle=orthogonalEdgeStyle;rounded=0;orthogonalLoop=1;jettySize=auto;html=1;entryX=0.25;entryY=1;entryDx=0;entryDy=0;" edge="1" source="-wlyE-sO2jZst2v2E5xR-142" target="-wlyE-sO2jZst2v2E5xR-146" parent="1">
          <mxGeometry relative="1" as="geometry">
            <mxPoint x="1417" y="509" as="targetPoint" />
            <Array as="points">
              <mxPoint x="1387" y="492" />
              <mxPoint x="1387" y="492" />
            </Array>
          </mxGeometry>
        </mxCell>
        <mxCell id="-wlyE-sO2jZst2v2E5xR-142" value="1. Navigate to()" style="text;html=1;align=center;verticalAlign=middle;resizable=0;points=[];autosize=1;strokeColor=none;fillColor=none;" vertex="1" parent="1">
          <mxGeometry x="1257" y="474" width="110" height="30" as="geometry" />
        </mxCell>
        <mxCell id="-wlyE-sO2jZst2v2E5xR-143" value="Login Page" style="rounded=0;whiteSpace=wrap;html=1;" vertex="1" parent="1">
          <mxGeometry x="1397" y="404" width="110" height="36" as="geometry" />
        </mxCell>
        <mxCell id="-wlyE-sO2jZst2v2E5xR-144" value="" style="endArrow=none;dashed=1;html=1;rounded=0;entryX=0.5;entryY=1;entryDx=0;entryDy=0;" edge="1" source="-wlyE-sO2jZst2v2E5xR-146" target="-wlyE-sO2jZst2v2E5xR-143" parent="1">
          <mxGeometry width="50" height="50" relative="1" as="geometry">
            <mxPoint x="1451.47" y="824" as="sourcePoint" />
            <mxPoint x="1451.94" y="474" as="targetPoint" />
          </mxGeometry>
        </mxCell>
        <mxCell id="-wlyE-sO2jZst2v2E5xR-145" value="" style="endArrow=none;dashed=1;html=1;rounded=0;" edge="1" source="-wlyE-sO2jZst2v2E5xR-151" target="-wlyE-sO2jZst2v2E5xR-146" parent="1">
          <mxGeometry width="50" height="50" relative="1" as="geometry">
            <mxPoint x="1451.47" y="824" as="sourcePoint" />
            <mxPoint x="1451.94" y="474" as="targetPoint" />
          </mxGeometry>
        </mxCell>
        <mxCell id="-wlyE-sO2jZst2v2E5xR-146" value="" style="rounded=1;whiteSpace=wrap;html=1;fillColor=#003A70;strokeColor=none;fontColor=#ffffff;rotation=90;" vertex="1" parent="1">
          <mxGeometry x="1427" y="494" width="50" height="20" as="geometry" />
        </mxCell>
        <mxCell id="-wlyE-sO2jZst2v2E5xR-147" value="" style="endArrow=none;dashed=1;html=1;rounded=0;entryX=-0.006;entryY=0.428;entryDx=0;entryDy=0;entryPerimeter=0;" edge="1" target="-wlyE-sO2jZst2v2E5xR-149" parent="1">
          <mxGeometry width="50" height="50" relative="1" as="geometry">
            <mxPoint x="1241" y="584" as="sourcePoint" />
            <mxPoint x="1281" y="564" as="targetPoint" />
          </mxGeometry>
        </mxCell>
        <mxCell id="-wlyE-sO2jZst2v2E5xR-148" style="edgeStyle=orthogonalEdgeStyle;rounded=0;orthogonalLoop=1;jettySize=auto;html=1;entryX=0.141;entryY=1.295;entryDx=0;entryDy=0;entryPerimeter=0;" edge="1" source="-wlyE-sO2jZst2v2E5xR-149" target="-wlyE-sO2jZst2v2E5xR-151" parent="1">
          <mxGeometry relative="1" as="geometry" />
        </mxCell>
        <mxCell id="-wlyE-sO2jZst2v2E5xR-149" value="2. Enter valid login info" style="text;html=1;align=center;verticalAlign=middle;resizable=0;points=[];autosize=1;strokeColor=none;fillColor=none;" vertex="1" parent="1">
          <mxGeometry x="1257" y="544" width="140" height="30" as="geometry" />
        </mxCell>
        <mxCell id="-wlyE-sO2jZst2v2E5xR-150" value="" style="endArrow=none;dashed=1;html=1;rounded=0;" edge="1" source="-wlyE-sO2jZst2v2E5xR-206" target="-wlyE-sO2jZst2v2E5xR-151" parent="1">
          <mxGeometry width="50" height="50" relative="1" as="geometry">
            <mxPoint x="1451.47" y="824" as="sourcePoint" />
            <mxPoint x="1452" y="529" as="targetPoint" />
          </mxGeometry>
        </mxCell>
        <mxCell id="-wlyE-sO2jZst2v2E5xR-151" value="" style="rounded=1;whiteSpace=wrap;html=1;fillColor=#003a70;strokeColor=none;fontColor=#ffffff;rotation=90;" vertex="1" parent="1">
          <mxGeometry x="1427" y="569" width="50" height="20" as="geometry" />
        </mxCell>
        <mxCell id="-wlyE-sO2jZst2v2E5xR-152" value=":LoginController" style="rounded=0;whiteSpace=wrap;html=1;" vertex="1" parent="1">
          <mxGeometry x="1665" y="402" width="110" height="36" as="geometry" />
        </mxCell>
        <mxCell id="-wlyE-sO2jZst2v2E5xR-153" value="" style="endArrow=none;dashed=1;html=1;rounded=0;entryX=0.5;entryY=1;entryDx=0;entryDy=0;" edge="1" source="-wlyE-sO2jZst2v2E5xR-158" target="-wlyE-sO2jZst2v2E5xR-152" parent="1">
          <mxGeometry width="50" height="50" relative="1" as="geometry">
            <mxPoint x="1720" y="826" as="sourcePoint" />
            <mxPoint x="1725.53" y="596" as="targetPoint" />
          </mxGeometry>
        </mxCell>
        <mxCell id="-wlyE-sO2jZst2v2E5xR-154" value="" style="endArrow=none;html=1;rounded=0;exitX=0.75;exitY=0;exitDx=0;exitDy=0;entryX=-0.025;entryY=0.582;entryDx=0;entryDy=0;entryPerimeter=0;" edge="1" source="-wlyE-sO2jZst2v2E5xR-151" parent="1">
          <mxGeometry width="50" height="50" relative="1" as="geometry">
            <mxPoint x="1527" y="684" as="sourcePoint" />
            <mxPoint x="1494.5" y="591.4599999999998" as="targetPoint" />
          </mxGeometry>
        </mxCell>
        <mxCell id="-wlyE-sO2jZst2v2E5xR-155" style="edgeStyle=orthogonalEdgeStyle;rounded=0;orthogonalLoop=1;jettySize=auto;html=1;entryX=0.095;entryY=1.005;entryDx=0;entryDy=0;entryPerimeter=0;" edge="1" target="-wlyE-sO2jZst2v2E5xR-158" parent="1">
          <mxGeometry relative="1" as="geometry">
            <mxPoint x="1640" y="588.9999999999998" as="sourcePoint" />
          </mxGeometry>
        </mxCell>
        <mxCell id="-wlyE-sO2jZst2v2E5xR-156" value="3. Submit data:&lt;br&gt;{email: &#39;johndoe@g.com&#39;,&lt;br style=&quot;border-color: var(--border-color);&quot;&gt;biometric_data :&#39;BLOB&#39; }" style="text;html=1;align=center;verticalAlign=middle;resizable=0;points=[];autosize=1;strokeColor=none;fillColor=none;" vertex="1" parent="1">
          <mxGeometry x="1489" y="559" width="160" height="60" as="geometry" />
        </mxCell>
        <mxCell id="-wlyE-sO2jZst2v2E5xR-157" value="" style="endArrow=none;dashed=1;html=1;rounded=0;entryX=1;entryY=0.5;entryDx=0;entryDy=0;" edge="1" source="-wlyE-sO2jZst2v2E5xR-194" target="-wlyE-sO2jZst2v2E5xR-158" parent="1">
          <mxGeometry width="50" height="50" relative="1" as="geometry">
            <mxPoint x="1720" y="826" as="sourcePoint" />
            <mxPoint x="1720" y="438" as="targetPoint" />
          </mxGeometry>
        </mxCell>
        <mxCell id="-wlyE-sO2jZst2v2E5xR-158" value="" style="rounded=1;whiteSpace=wrap;html=1;fillColor=#003A70;strokeColor=none;fontColor=#ffffff;rotation=90;" vertex="1" parent="1">
          <mxGeometry x="1671.5" y="614.5" width="97" height="20" as="geometry" />
        </mxCell>
        <mxCell id="-wlyE-sO2jZst2v2E5xR-159" value=":AuthService" style="rounded=0;whiteSpace=wrap;html=1;" vertex="1" parent="1">
          <mxGeometry x="1959" y="402" width="110" height="36" as="geometry" />
        </mxCell>
        <mxCell id="-wlyE-sO2jZst2v2E5xR-160" value="" style="endArrow=none;dashed=1;html=1;rounded=0;entryX=0.5;entryY=1;entryDx=0;entryDy=0;" edge="1" source="-wlyE-sO2jZst2v2E5xR-162" target="-wlyE-sO2jZst2v2E5xR-159" parent="1">
          <mxGeometry width="50" height="50" relative="1" as="geometry">
            <mxPoint x="2014" y="826" as="sourcePoint" />
            <mxPoint x="1824" y="448" as="targetPoint" />
          </mxGeometry>
        </mxCell>
        <mxCell id="-wlyE-sO2jZst2v2E5xR-161" value="" style="endArrow=none;dashed=1;html=1;rounded=0;entryX=1;entryY=0.5;entryDx=0;entryDy=0;" edge="1" source="-wlyE-sO2jZst2v2E5xR-184" target="-wlyE-sO2jZst2v2E5xR-162" parent="1">
          <mxGeometry width="50" height="50" relative="1" as="geometry">
            <mxPoint x="2014" y="826" as="sourcePoint" />
            <mxPoint x="2014" y="438" as="targetPoint" />
          </mxGeometry>
        </mxCell>
        <mxCell id="-wlyE-sO2jZst2v2E5xR-162" value="" style="rounded=1;whiteSpace=wrap;html=1;fillColor=#003A70;strokeColor=none;fontColor=#ffffff;rotation=90;" vertex="1" parent="1">
          <mxGeometry x="1989" y="601" width="50" height="20" as="geometry" />
        </mxCell>
        <mxCell id="-wlyE-sO2jZst2v2E5xR-163" style="edgeStyle=orthogonalEdgeStyle;rounded=0;orthogonalLoop=1;jettySize=auto;html=1;entryX=0.141;entryY=0.881;entryDx=0;entryDy=0;entryPerimeter=0;exitX=1.023;exitY=0.555;exitDx=0;exitDy=0;exitPerimeter=0;" edge="1" source="-wlyE-sO2jZst2v2E5xR-164" target="-wlyE-sO2jZst2v2E5xR-162" parent="1">
          <mxGeometry relative="1" as="geometry">
            <mxPoint x="1969" y="606" as="sourcePoint" />
          </mxGeometry>
        </mxCell>
        <mxCell id="-wlyE-sO2jZst2v2E5xR-164" value="4. Verify encrypted login info&lt;br&gt;POST &#39;/auth-service/login&#39;" style="text;html=1;align=center;verticalAlign=middle;resizable=0;points=[];autosize=1;strokeColor=none;fillColor=none;" vertex="1" parent="1">
          <mxGeometry x="1784" y="581" width="170" height="40" as="geometry" />
        </mxCell>
        <mxCell id="-wlyE-sO2jZst2v2E5xR-165" value="" style="endArrow=none;html=1;rounded=0;entryX=0.204;entryY=0.03;entryDx=0;entryDy=0;entryPerimeter=0;exitX=-0.022;exitY=0.514;exitDx=0;exitDy=0;exitPerimeter=0;" edge="1" source="-wlyE-sO2jZst2v2E5xR-164" target="-wlyE-sO2jZst2v2E5xR-158" parent="1">
          <mxGeometry width="50" height="50" relative="1" as="geometry">
            <mxPoint x="1774" y="746" as="sourcePoint" />
            <mxPoint x="1824" y="696" as="targetPoint" />
          </mxGeometry>
        </mxCell>
        <mxCell id="-wlyE-sO2jZst2v2E5xR-166" value=":AuthDAO" style="rounded=0;whiteSpace=wrap;html=1;" vertex="1" parent="1">
          <mxGeometry x="2189" y="402" width="110" height="36" as="geometry" />
        </mxCell>
        <mxCell id="-wlyE-sO2jZst2v2E5xR-167" value="" style="endArrow=none;dashed=1;html=1;rounded=0;entryX=0.5;entryY=1;entryDx=0;entryDy=0;" edge="1" source="-wlyE-sO2jZst2v2E5xR-169" target="-wlyE-sO2jZst2v2E5xR-166" parent="1">
          <mxGeometry width="50" height="50" relative="1" as="geometry">
            <mxPoint x="2244" y="826" as="sourcePoint" />
            <mxPoint x="2024" y="448" as="targetPoint" />
          </mxGeometry>
        </mxCell>
        <mxCell id="-wlyE-sO2jZst2v2E5xR-168" value="" style="endArrow=none;dashed=1;html=1;rounded=0;entryX=1;entryY=0.5;entryDx=0;entryDy=0;" edge="1" target="-wlyE-sO2jZst2v2E5xR-169" parent="1">
          <mxGeometry width="50" height="50" relative="1" as="geometry">
            <mxPoint x="2244" y="826" as="sourcePoint" />
            <mxPoint x="2244" y="438" as="targetPoint" />
          </mxGeometry>
        </mxCell>
        <mxCell id="-wlyE-sO2jZst2v2E5xR-169" value="" style="rounded=1;whiteSpace=wrap;html=1;fillColor=#003A70;strokeColor=none;fontColor=#ffffff;rotation=90;" vertex="1" parent="1">
          <mxGeometry x="2219" y="656" width="50" height="20" as="geometry" />
        </mxCell>
        <mxCell id="-wlyE-sO2jZst2v2E5xR-170" style="edgeStyle=orthogonalEdgeStyle;rounded=0;orthogonalLoop=1;jettySize=auto;html=1;entryX=0.119;entryY=0.974;entryDx=0;entryDy=0;entryPerimeter=0;" edge="1" source="-wlyE-sO2jZst2v2E5xR-171" target="-wlyE-sO2jZst2v2E5xR-169" parent="1">
          <mxGeometry relative="1" as="geometry" />
        </mxCell>
        <mxCell id="-wlyE-sO2jZst2v2E5xR-171" value="5. VerifyUser(loginData)" style="text;html=1;align=center;verticalAlign=middle;resizable=0;points=[];autosize=1;strokeColor=none;fillColor=none;" vertex="1" parent="1">
          <mxGeometry x="2049" y="651" width="150" height="30" as="geometry" />
        </mxCell>
        <mxCell id="-wlyE-sO2jZst2v2E5xR-172" style="edgeStyle=orthogonalEdgeStyle;rounded=0;orthogonalLoop=1;jettySize=auto;html=1;entryX=0.813;entryY=0.027;entryDx=0;entryDy=0;entryPerimeter=0;" edge="1" source="-wlyE-sO2jZst2v2E5xR-173" target="-wlyE-sO2jZst2v2E5xR-158" parent="1">
          <mxGeometry relative="1" as="geometry" />
        </mxCell>
        <mxCell id="-wlyE-sO2jZst2v2E5xR-173" value="6. response: &lt;br&gt;{ code: 200, message: &#39;success&#39;}" style="text;html=1;align=left;verticalAlign=middle;resizable=0;points=[];autosize=1;strokeColor=none;fillColor=none;" vertex="1" parent="1">
          <mxGeometry x="1759" y="634" width="200" height="40" as="geometry" />
        </mxCell>
        <mxCell id="-wlyE-sO2jZst2v2E5xR-174" value="" style="endArrow=none;html=1;rounded=0;entryX=0.75;entryY=1;entryDx=0;entryDy=0;exitX=1.013;exitY=0.507;exitDx=0;exitDy=0;exitPerimeter=0;" edge="1" source="-wlyE-sO2jZst2v2E5xR-173" target="-wlyE-sO2jZst2v2E5xR-162" parent="1">
          <mxGeometry width="50" height="50" relative="1" as="geometry">
            <mxPoint x="2020.6799999999998" y="648.0799999999999" as="sourcePoint" />
            <mxPoint x="1979" y="736" as="targetPoint" />
          </mxGeometry>
        </mxCell>
        <mxCell id="-wlyE-sO2jZst2v2E5xR-175" style="edgeStyle=orthogonalEdgeStyle;rounded=0;orthogonalLoop=1;jettySize=auto;html=1;entryX=0.5;entryY=0;entryDx=0;entryDy=0;" edge="1" source="-wlyE-sO2jZst2v2E5xR-176" target="-wlyE-sO2jZst2v2E5xR-206" parent="1">
          <mxGeometry relative="1" as="geometry" />
        </mxCell>
        <mxCell id="-wlyE-sO2jZst2v2E5xR-176" value="7. save response user data" style="text;html=1;align=center;verticalAlign=middle;resizable=0;points=[];autosize=1;strokeColor=none;fillColor=none;" vertex="1" parent="1">
          <mxGeometry x="1499" y="651" width="170" height="30" as="geometry" />
        </mxCell>
        <mxCell id="-wlyE-sO2jZst2v2E5xR-177" value="" style="endArrow=none;html=1;rounded=0;entryX=0.899;entryY=0.956;entryDx=0;entryDy=0;entryPerimeter=0;exitX=1.039;exitY=0.479;exitDx=0;exitDy=0;exitPerimeter=0;" edge="1" source="-wlyE-sO2jZst2v2E5xR-176" target="-wlyE-sO2jZst2v2E5xR-158" parent="1">
          <mxGeometry width="50" height="50" relative="1" as="geometry">
            <mxPoint x="1674.15" y="693.5699999999999" as="sourcePoint" />
            <mxPoint x="1655" y="746" as="targetPoint" />
          </mxGeometry>
        </mxCell>
        <mxCell id="-wlyE-sO2jZst2v2E5xR-178" style="edgeStyle=orthogonalEdgeStyle;rounded=0;orthogonalLoop=1;jettySize=auto;html=1;" edge="1" source="-wlyE-sO2jZst2v2E5xR-179" parent="1">
          <mxGeometry relative="1" as="geometry">
            <mxPoint x="1239" y="801" as="targetPoint" />
          </mxGeometry>
        </mxCell>
        <mxCell id="-wlyE-sO2jZst2v2E5xR-179" value="8. display response" style="text;html=1;align=center;verticalAlign=middle;resizable=0;points=[];autosize=1;strokeColor=none;fillColor=none;" vertex="1" parent="1">
          <mxGeometry x="1279" y="786" width="130" height="30" as="geometry" />
        </mxCell>
        <mxCell id="-wlyE-sO2jZst2v2E5xR-180" value="" style="endArrow=none;html=1;rounded=0;entryX=0.75;entryY=1;entryDx=0;entryDy=0;exitX=1.002;exitY=0.458;exitDx=0;exitDy=0;exitPerimeter=0;" edge="1" source="-wlyE-sO2jZst2v2E5xR-179" target="-wlyE-sO2jZst2v2E5xR-204" parent="1">
          <mxGeometry width="50" height="50" relative="1" as="geometry">
            <mxPoint x="1312" y="799" as="sourcePoint" />
            <mxPoint x="1362" y="749" as="targetPoint" />
          </mxGeometry>
        </mxCell>
        <mxCell id="-wlyE-sO2jZst2v2E5xR-181" value="&lt;h2&gt;Login with fingerprint&lt;/h2&gt;" style="text;html=1;align=center;verticalAlign=middle;resizable=0;points=[];autosize=1;strokeColor=none;fillColor=none;" vertex="1" parent="1">
          <mxGeometry x="1204" y="41" width="210" height="60" as="geometry" />
        </mxCell>
        <mxCell id="-wlyE-sO2jZst2v2E5xR-182" value="" style="endArrow=none;html=1;rounded=0;exitX=0.75;exitY=0;exitDx=0;exitDy=0;entryX=-0.018;entryY=0.421;entryDx=0;entryDy=0;entryPerimeter=0;" edge="1" source="-wlyE-sO2jZst2v2E5xR-162" target="-wlyE-sO2jZst2v2E5xR-171" parent="1">
          <mxGeometry width="50" height="50" relative="1" as="geometry">
            <mxPoint x="2099" y="561" as="sourcePoint" />
            <mxPoint x="2149" y="511" as="targetPoint" />
          </mxGeometry>
        </mxCell>
        <mxCell id="-wlyE-sO2jZst2v2E5xR-183" value="" style="endArrow=none;dashed=1;html=1;rounded=0;entryX=1;entryY=0.5;entryDx=0;entryDy=0;" edge="1" source="-wlyE-sO2jZst2v2E5xR-191" target="-wlyE-sO2jZst2v2E5xR-184" parent="1">
          <mxGeometry width="50" height="50" relative="1" as="geometry">
            <mxPoint x="2014" y="826" as="sourcePoint" />
            <mxPoint x="2014" y="661" as="targetPoint" />
          </mxGeometry>
        </mxCell>
        <mxCell id="-wlyE-sO2jZst2v2E5xR-184" value="" style="rounded=1;whiteSpace=wrap;html=1;fillColor=#003A70;strokeColor=none;fontColor=#ffffff;rotation=90;" vertex="1" parent="1">
          <mxGeometry x="1989" y="664" width="50" height="20" as="geometry" />
        </mxCell>
        <mxCell id="-wlyE-sO2jZst2v2E5xR-185" style="edgeStyle=orthogonalEdgeStyle;rounded=0;orthogonalLoop=1;jettySize=auto;html=1;entryX=0.386;entryY=-0.155;entryDx=0;entryDy=0;entryPerimeter=0;" edge="1" source="-wlyE-sO2jZst2v2E5xR-186" target="-wlyE-sO2jZst2v2E5xR-194" parent="1">
          <mxGeometry relative="1" as="geometry" />
        </mxCell>
        <mxCell id="-wlyE-sO2jZst2v2E5xR-186" value="6. response:&lt;br&gt;{code: 409, message: &#39;Data is invalid&#39;}" style="text;html=1;align=left;verticalAlign=middle;resizable=0;points=[];autosize=1;strokeColor=none;fillColor=none;" vertex="1" parent="1">
          <mxGeometry x="1759" y="674" width="230" height="40" as="geometry" />
        </mxCell>
        <mxCell id="-wlyE-sO2jZst2v2E5xR-187" style="edgeStyle=orthogonalEdgeStyle;rounded=0;orthogonalLoop=1;jettySize=auto;html=1;entryX=0.25;entryY=0;entryDx=0;entryDy=0;" edge="1" source="-wlyE-sO2jZst2v2E5xR-188" target="-wlyE-sO2jZst2v2E5xR-196" parent="1">
          <mxGeometry relative="1" as="geometry" />
        </mxCell>
        <mxCell id="-wlyE-sO2jZst2v2E5xR-188" value="6. response:&lt;br&gt;{code: 500, message: &#39;error&#39;}" style="text;html=1;align=left;verticalAlign=middle;resizable=0;points=[];autosize=1;strokeColor=none;fillColor=none;" vertex="1" parent="1">
          <mxGeometry x="1759" y="716" width="180" height="40" as="geometry" />
        </mxCell>
        <mxCell id="-wlyE-sO2jZst2v2E5xR-189" value="" style="endArrow=none;html=1;rounded=0;entryX=0.5;entryY=1;entryDx=0;entryDy=0;exitX=1.008;exitY=0.58;exitDx=0;exitDy=0;exitPerimeter=0;" edge="1" source="-wlyE-sO2jZst2v2E5xR-186" target="-wlyE-sO2jZst2v2E5xR-184" parent="1">
          <mxGeometry width="50" height="50" relative="1" as="geometry">
            <mxPoint x="1919" y="703" as="sourcePoint" />
            <mxPoint x="1961" y="698" as="targetPoint" />
          </mxGeometry>
        </mxCell>
        <mxCell id="-wlyE-sO2jZst2v2E5xR-190" value="" style="endArrow=none;dashed=1;html=1;rounded=0;entryX=1;entryY=0.5;entryDx=0;entryDy=0;" edge="1" target="-wlyE-sO2jZst2v2E5xR-191" parent="1">
          <mxGeometry width="50" height="50" relative="1" as="geometry">
            <mxPoint x="2014" y="826" as="sourcePoint" />
            <mxPoint x="2014" y="724" as="targetPoint" />
          </mxGeometry>
        </mxCell>
        <mxCell id="-wlyE-sO2jZst2v2E5xR-191" value="" style="rounded=1;whiteSpace=wrap;html=1;fillColor=#003A70;strokeColor=none;fontColor=#ffffff;rotation=90;" vertex="1" parent="1">
          <mxGeometry x="1989" y="726" width="50" height="20" as="geometry" />
        </mxCell>
        <mxCell id="-wlyE-sO2jZst2v2E5xR-192" value="" style="endArrow=none;html=1;rounded=0;entryX=0.987;entryY=0.545;entryDx=0;entryDy=0;exitX=0.5;exitY=1;exitDx=0;exitDy=0;entryPerimeter=0;" edge="1" source="-wlyE-sO2jZst2v2E5xR-191" target="-wlyE-sO2jZst2v2E5xR-188" parent="1">
          <mxGeometry width="50" height="50" relative="1" as="geometry">
            <mxPoint x="2001" y="717" as="sourcePoint" />
            <mxPoint x="2014" y="684" as="targetPoint" />
          </mxGeometry>
        </mxCell>
        <mxCell id="-wlyE-sO2jZst2v2E5xR-193" value="" style="endArrow=none;dashed=1;html=1;rounded=0;entryX=1;entryY=0.5;entryDx=0;entryDy=0;" edge="1" source="-wlyE-sO2jZst2v2E5xR-196" target="-wlyE-sO2jZst2v2E5xR-194" parent="1">
          <mxGeometry width="50" height="50" relative="1" as="geometry">
            <mxPoint x="1720" y="826" as="sourcePoint" />
            <mxPoint x="1720" y="673" as="targetPoint" />
          </mxGeometry>
        </mxCell>
        <mxCell id="-wlyE-sO2jZst2v2E5xR-194" value="" style="rounded=1;whiteSpace=wrap;html=1;fillColor=#003A70;strokeColor=none;fontColor=#ffffff;rotation=90;" vertex="1" parent="1">
          <mxGeometry x="1696.25" y="691.25" width="47.5" height="20" as="geometry" />
        </mxCell>
        <mxCell id="-wlyE-sO2jZst2v2E5xR-195" value="" style="endArrow=none;dashed=1;html=1;rounded=0;entryX=1;entryY=0.5;entryDx=0;entryDy=0;" edge="1" target="-wlyE-sO2jZst2v2E5xR-196" parent="1">
          <mxGeometry width="50" height="50" relative="1" as="geometry">
            <mxPoint x="1720" y="826" as="sourcePoint" />
            <mxPoint x="1720" y="725" as="targetPoint" />
          </mxGeometry>
        </mxCell>
        <mxCell id="-wlyE-sO2jZst2v2E5xR-196" value="" style="rounded=1;whiteSpace=wrap;html=1;fillColor=#003A70;strokeColor=none;fontColor=#ffffff;rotation=90;" vertex="1" parent="1">
          <mxGeometry x="1696.25" y="746" width="47.5" height="20" as="geometry" />
        </mxCell>
        <mxCell id="-wlyE-sO2jZst2v2E5xR-197" style="edgeStyle=orthogonalEdgeStyle;rounded=0;orthogonalLoop=1;jettySize=auto;html=1;entryX=0.25;entryY=0;entryDx=0;entryDy=0;" edge="1" source="-wlyE-sO2jZst2v2E5xR-198" target="-wlyE-sO2jZst2v2E5xR-204" parent="1">
          <mxGeometry relative="1" as="geometry" />
        </mxCell>
        <mxCell id="-wlyE-sO2jZst2v2E5xR-198" value="7. response error message" style="text;html=1;align=center;verticalAlign=middle;resizable=0;points=[];autosize=1;strokeColor=none;fillColor=none;" vertex="1" parent="1">
          <mxGeometry x="1514" y="684" width="170" height="30" as="geometry" />
        </mxCell>
        <mxCell id="-wlyE-sO2jZst2v2E5xR-199" value="" style="endArrow=none;html=1;rounded=0;entryX=0.5;entryY=1;entryDx=0;entryDy=0;" edge="1" target="-wlyE-sO2jZst2v2E5xR-194" parent="1">
          <mxGeometry width="50" height="50" relative="1" as="geometry">
            <mxPoint x="1679" y="699" as="sourcePoint" />
            <mxPoint x="1721" y="673" as="targetPoint" />
          </mxGeometry>
        </mxCell>
        <mxCell id="-wlyE-sO2jZst2v2E5xR-200" value="" style="endArrow=none;html=1;rounded=0;entryX=0.5;entryY=1;entryDx=0;entryDy=0;exitX=1.009;exitY=0.424;exitDx=0;exitDy=0;exitPerimeter=0;" edge="1" source="-wlyE-sO2jZst2v2E5xR-202" target="-wlyE-sO2jZst2v2E5xR-196" parent="1">
          <mxGeometry width="50" height="50" relative="1" as="geometry">
            <mxPoint x="1679" y="756" as="sourcePoint" />
            <mxPoint x="1731" y="683" as="targetPoint" />
          </mxGeometry>
        </mxCell>
        <mxCell id="-wlyE-sO2jZst2v2E5xR-201" style="edgeStyle=orthogonalEdgeStyle;rounded=0;orthogonalLoop=1;jettySize=auto;html=1;entryX=0.25;entryY=0;entryDx=0;entryDy=0;" edge="1" source="-wlyE-sO2jZst2v2E5xR-202" target="-wlyE-sO2jZst2v2E5xR-204" parent="1">
          <mxGeometry relative="1" as="geometry" />
        </mxCell>
        <mxCell id="-wlyE-sO2jZst2v2E5xR-202" value="7. response error message" style="text;html=1;align=center;verticalAlign=middle;resizable=0;points=[];autosize=1;strokeColor=none;fillColor=none;" vertex="1" parent="1">
          <mxGeometry x="1519" y="726" width="170" height="30" as="geometry" />
        </mxCell>
        <mxCell id="-wlyE-sO2jZst2v2E5xR-203" value="" style="endArrow=none;dashed=1;html=1;rounded=0;" edge="1" target="-wlyE-sO2jZst2v2E5xR-204" parent="1">
          <mxGeometry width="50" height="50" relative="1" as="geometry">
            <mxPoint x="1451.47" y="824" as="sourcePoint" />
            <mxPoint x="1452" y="604" as="targetPoint" />
          </mxGeometry>
        </mxCell>
        <mxCell id="-wlyE-sO2jZst2v2E5xR-204" value="" style="rounded=1;whiteSpace=wrap;html=1;fillColor=#003A70;strokeColor=none;fontColor=#ffffff;rotation=90;" vertex="1" parent="1">
          <mxGeometry x="1427" y="786" width="50" height="20" as="geometry" />
        </mxCell>
        <mxCell id="-wlyE-sO2jZst2v2E5xR-205" value="" style="endArrow=none;dashed=1;html=1;rounded=0;" edge="1" source="-wlyE-sO2jZst2v2E5xR-204" target="-wlyE-sO2jZst2v2E5xR-206" parent="1">
          <mxGeometry width="50" height="50" relative="1" as="geometry">
            <mxPoint x="1452" y="771" as="sourcePoint" />
            <mxPoint x="1452" y="604" as="targetPoint" />
          </mxGeometry>
        </mxCell>
        <mxCell id="-wlyE-sO2jZst2v2E5xR-206" value="" style="rounded=1;whiteSpace=wrap;html=1;fillColor=#003A70;strokeColor=none;fontColor=#ffffff;rotation=90;" vertex="1" parent="1">
          <mxGeometry x="1427" y="726" width="50" height="20" as="geometry" />
        </mxCell>
        <mxCell id="-wlyE-sO2jZst2v2E5xR-207" style="edgeStyle=orthogonalEdgeStyle;rounded=0;orthogonalLoop=1;jettySize=auto;html=1;" edge="1" source="-wlyE-sO2jZst2v2E5xR-208" parent="1">
          <mxGeometry relative="1" as="geometry">
            <mxPoint x="1238.9999999999998" y="749" as="targetPoint" />
          </mxGeometry>
        </mxCell>
        <mxCell id="-wlyE-sO2jZst2v2E5xR-208" value="8. redirect to Home page" style="text;html=1;align=center;verticalAlign=middle;resizable=0;points=[];autosize=1;strokeColor=none;fillColor=none;" vertex="1" parent="1">
          <mxGeometry x="1262" y="734" width="160" height="30" as="geometry" />
        </mxCell>
        <mxCell id="-wlyE-sO2jZst2v2E5xR-209" value="" style="endArrow=none;html=1;rounded=0;entryX=0.75;entryY=1;entryDx=0;entryDy=0;exitX=1.015;exitY=0.6;exitDx=0;exitDy=0;exitPerimeter=0;" edge="1" source="-wlyE-sO2jZst2v2E5xR-208" target="-wlyE-sO2jZst2v2E5xR-206" parent="1">
          <mxGeometry width="50" height="50" relative="1" as="geometry">
            <mxPoint x="1339" y="701" as="sourcePoint" />
            <mxPoint x="1389" y="651" as="targetPoint" />
          </mxGeometry>
        </mxCell>
        <mxCell id="-wlyE-sO2jZst2v2E5xR-210" value="&lt;h2&gt;Register&lt;/h2&gt;" style="text;html=1;align=center;verticalAlign=middle;resizable=0;points=[];autosize=1;strokeColor=none;fillColor=none;" vertex="1" parent="1">
          <mxGeometry x="-1100" y="41" width="100" height="60" as="geometry" />
        </mxCell>
        <mxCell id="-wlyE-sO2jZst2v2E5xR-211" value="user" style="shape=umlActor;verticalLabelPosition=bottom;verticalAlign=top;html=1;outlineConnect=0;" vertex="1" parent="1">
          <mxGeometry x="-1132" y="163" width="30" height="60" as="geometry" />
        </mxCell>
        <mxCell id="-wlyE-sO2jZst2v2E5xR-212" value="Register page" style="rounded=0;whiteSpace=wrap;html=1;" vertex="1" parent="1">
          <mxGeometry x="-950" y="189" width="110" height="36" as="geometry" />
        </mxCell>
        <mxCell id="-wlyE-sO2jZst2v2E5xR-214" value="" style="endArrow=none;dashed=1;html=1;rounded=0;entryX=0.5;entryY=0.5;entryDx=0;entryDy=0;entryPerimeter=0;" edge="1" parent="1" target="-wlyE-sO2jZst2v2E5xR-211">
          <mxGeometry width="50" height="50" relative="1" as="geometry">
            <mxPoint x="-1117" y="820" as="sourcePoint" />
            <mxPoint x="-1062" y="431" as="targetPoint" />
          </mxGeometry>
        </mxCell>
        <mxCell id="-wlyE-sO2jZst2v2E5xR-215" value="" style="endArrow=none;dashed=1;html=1;rounded=0;entryX=0.5;entryY=1;entryDx=0;entryDy=0;" edge="1" parent="1" source="-wlyE-sO2jZst2v2E5xR-226" target="-wlyE-sO2jZst2v2E5xR-212">
          <mxGeometry width="50" height="50" relative="1" as="geometry">
            <mxPoint x="-895" y="613" as="sourcePoint" />
            <mxPoint x="-710" y="129" as="targetPoint" />
          </mxGeometry>
        </mxCell>
        <mxCell id="-wlyE-sO2jZst2v2E5xR-216" value=":RegisterController" style="rounded=0;whiteSpace=wrap;html=1;" vertex="1" parent="1">
          <mxGeometry x="-710" y="188" width="110" height="36" as="geometry" />
        </mxCell>
        <mxCell id="-wlyE-sO2jZst2v2E5xR-217" value="" style="endArrow=none;dashed=1;html=1;rounded=0;entryX=0.5;entryY=1;entryDx=0;entryDy=0;" edge="1" parent="1" source="-wlyE-sO2jZst2v2E5xR-231" target="-wlyE-sO2jZst2v2E5xR-216">
          <mxGeometry width="50" height="50" relative="1" as="geometry">
            <mxPoint x="-655" y="613" as="sourcePoint" />
            <mxPoint x="-885" y="235" as="targetPoint" />
          </mxGeometry>
        </mxCell>
        <mxCell id="-wlyE-sO2jZst2v2E5xR-218" value=":AuthService" style="rounded=0;whiteSpace=wrap;html=1;" vertex="1" parent="1">
          <mxGeometry x="-435" y="188" width="110" height="36" as="geometry" />
        </mxCell>
        <mxCell id="-wlyE-sO2jZst2v2E5xR-219" value=":AuthDAO" style="rounded=0;whiteSpace=wrap;html=1;" vertex="1" parent="1">
          <mxGeometry x="-195" y="188" width="110" height="36" as="geometry" />
        </mxCell>
        <mxCell id="-wlyE-sO2jZst2v2E5xR-220" value="" style="endArrow=none;dashed=1;html=1;rounded=0;entryX=0.5;entryY=1;entryDx=0;entryDy=0;" edge="1" parent="1" source="-wlyE-sO2jZst2v2E5xR-250" target="-wlyE-sO2jZst2v2E5xR-218">
          <mxGeometry width="50" height="50" relative="1" as="geometry">
            <mxPoint x="-375" y="752" as="sourcePoint" />
            <mxPoint x="-600" y="234" as="targetPoint" />
          </mxGeometry>
        </mxCell>
        <mxCell id="-wlyE-sO2jZst2v2E5xR-221" value="" style="endArrow=none;dashed=1;html=1;rounded=0;entryX=0.5;entryY=1;entryDx=0;entryDy=0;" edge="1" parent="1" source="-wlyE-sO2jZst2v2E5xR-242" target="-wlyE-sO2jZst2v2E5xR-219">
          <mxGeometry width="50" height="50" relative="1" as="geometry">
            <mxPoint x="-140" y="752" as="sourcePoint" />
            <mxPoint x="-590" y="244" as="targetPoint" />
          </mxGeometry>
        </mxCell>
        <mxCell id="-wlyE-sO2jZst2v2E5xR-222" value="" style="rounded=1;whiteSpace=wrap;html=1;fillColor=#003A70;strokeColor=none;fontColor=#ffffff;rotation=90;" vertex="1" parent="1">
          <mxGeometry x="-920" y="253" width="50" height="20" as="geometry" />
        </mxCell>
        <mxCell id="-wlyE-sO2jZst2v2E5xR-225" style="edgeStyle=orthogonalEdgeStyle;rounded=0;orthogonalLoop=1;jettySize=auto;html=1;entryX=0.25;entryY=1;entryDx=0;entryDy=0;" edge="1" parent="1" source="-wlyE-sO2jZst2v2E5xR-224" target="-wlyE-sO2jZst2v2E5xR-222">
          <mxGeometry relative="1" as="geometry" />
        </mxCell>
        <mxCell id="-wlyE-sO2jZst2v2E5xR-224" value="1. Navigate to()" style="text;html=1;align=center;verticalAlign=middle;resizable=0;points=[];autosize=1;strokeColor=none;fillColor=none;" vertex="1" parent="1">
          <mxGeometry x="-1100" y="248" width="110" height="30" as="geometry" />
        </mxCell>
        <mxCell id="-wlyE-sO2jZst2v2E5xR-228" value="" style="endArrow=none;dashed=1;html=1;rounded=0;entryX=1;entryY=0.5;entryDx=0;entryDy=0;" edge="1" parent="1" source="-wlyE-sO2jZst2v2E5xR-275" target="-wlyE-sO2jZst2v2E5xR-226">
          <mxGeometry width="50" height="50" relative="1" as="geometry">
            <mxPoint x="-895" y="752" as="sourcePoint" />
            <mxPoint x="-895" y="225" as="targetPoint" />
          </mxGeometry>
        </mxCell>
        <mxCell id="-wlyE-sO2jZst2v2E5xR-226" value="" style="rounded=1;whiteSpace=wrap;html=1;fillColor=#003A70;strokeColor=none;fontColor=#ffffff;rotation=90;" vertex="1" parent="1">
          <mxGeometry x="-920" y="323" width="50" height="20" as="geometry" />
        </mxCell>
        <mxCell id="-wlyE-sO2jZst2v2E5xR-230" style="edgeStyle=orthogonalEdgeStyle;rounded=0;orthogonalLoop=1;jettySize=auto;html=1;entryX=0.25;entryY=1;entryDx=0;entryDy=0;" edge="1" parent="1" source="-wlyE-sO2jZst2v2E5xR-229" target="-wlyE-sO2jZst2v2E5xR-226">
          <mxGeometry relative="1" as="geometry" />
        </mxCell>
        <mxCell id="-wlyE-sO2jZst2v2E5xR-229" value="2. Enter data profile" style="text;html=1;align=center;verticalAlign=middle;resizable=0;points=[];autosize=1;strokeColor=none;fillColor=none;" vertex="1" parent="1">
          <mxGeometry x="-1090" y="306" width="130" height="30" as="geometry" />
        </mxCell>
        <mxCell id="-wlyE-sO2jZst2v2E5xR-232" value="" style="endArrow=none;dashed=1;html=1;rounded=0;entryX=1;entryY=0.5;entryDx=0;entryDy=0;" edge="1" parent="1" source="-wlyE-sO2jZst2v2E5xR-257" target="-wlyE-sO2jZst2v2E5xR-231">
          <mxGeometry width="50" height="50" relative="1" as="geometry">
            <mxPoint x="-655" y="752" as="sourcePoint" />
            <mxPoint x="-655" y="224" as="targetPoint" />
          </mxGeometry>
        </mxCell>
        <mxCell id="-wlyE-sO2jZst2v2E5xR-231" value="" style="rounded=1;whiteSpace=wrap;html=1;fillColor=#003A70;strokeColor=none;fontColor=#ffffff;rotation=90;" vertex="1" parent="1">
          <mxGeometry x="-680" y="352" width="50" height="20" as="geometry" />
        </mxCell>
        <mxCell id="-wlyE-sO2jZst2v2E5xR-235" style="edgeStyle=orthogonalEdgeStyle;rounded=0;orthogonalLoop=1;jettySize=auto;html=1;entryX=0.25;entryY=1;entryDx=0;entryDy=0;" edge="1" parent="1" source="-wlyE-sO2jZst2v2E5xR-233" target="-wlyE-sO2jZst2v2E5xR-231">
          <mxGeometry relative="1" as="geometry" />
        </mxCell>
        <mxCell id="-wlyE-sO2jZst2v2E5xR-233" value="3. Submit data&lt;br&gt;{ email: &#39;johndoe@g.com&#39;,&lt;br&gt;first_name: &#39;john&#39;,&lt;br&gt;last_name: &#39;doe&#39;,&lt;br&gt;address: &#39;jl. keadilan&#39;,&lt;br&gt;birth_date: &#39;11/10/97&#39;&lt;br&gt;gender: &#39;male&#39;,&lt;br&gt;phone_number: &#39;08123456789&#39;&lt;br&gt;ktp_number: &#39;12121212121&#39;&lt;br&gt;password: &#39;p@ssword&#39;}" style="text;html=1;align=center;verticalAlign=middle;resizable=0;points=[];autosize=1;strokeColor=none;fillColor=none;" vertex="1" parent="1">
          <mxGeometry x="-880" y="270" width="190" height="160" as="geometry" />
        </mxCell>
        <mxCell id="-wlyE-sO2jZst2v2E5xR-234" value="" style="endArrow=none;html=1;rounded=0;entryX=0.75;entryY=0;entryDx=0;entryDy=0;exitX=-0.029;exitY=0.497;exitDx=0;exitDy=0;exitPerimeter=0;" edge="1" parent="1" source="-wlyE-sO2jZst2v2E5xR-233" target="-wlyE-sO2jZst2v2E5xR-226">
          <mxGeometry width="50" height="50" relative="1" as="geometry">
            <mxPoint x="-820" y="542" as="sourcePoint" />
            <mxPoint x="-770" y="492" as="targetPoint" />
          </mxGeometry>
        </mxCell>
        <mxCell id="-wlyE-sO2jZst2v2E5xR-236" value="" style="rounded=1;whiteSpace=wrap;html=1;fillColor=#003A70;strokeColor=none;fontColor=#ffffff;rotation=90;" vertex="1" parent="1">
          <mxGeometry x="-405" y="380" width="50" height="20" as="geometry" />
        </mxCell>
        <mxCell id="-wlyE-sO2jZst2v2E5xR-238" value="4. verify encrypted info&lt;br&gt;POST &#39;/auth-service/register&#39;" style="text;html=1;align=center;verticalAlign=middle;resizable=0;points=[];autosize=1;strokeColor=none;fillColor=none;" vertex="1" parent="1">
          <mxGeometry x="-615" y="353" width="180" height="40" as="geometry" />
        </mxCell>
        <mxCell id="-wlyE-sO2jZst2v2E5xR-239" value="" style="endArrow=none;html=1;rounded=0;entryX=0.75;entryY=0;entryDx=0;entryDy=0;exitX=-0.005;exitY=0.508;exitDx=0;exitDy=0;exitPerimeter=0;" edge="1" parent="1" source="-wlyE-sO2jZst2v2E5xR-238" target="-wlyE-sO2jZst2v2E5xR-231">
          <mxGeometry width="50" height="50" relative="1" as="geometry">
            <mxPoint x="-550" y="552" as="sourcePoint" />
            <mxPoint x="-500" y="502" as="targetPoint" />
          </mxGeometry>
        </mxCell>
        <mxCell id="-wlyE-sO2jZst2v2E5xR-240" value="" style="endArrow=classic;html=1;rounded=0;exitX=1.041;exitY=0.529;exitDx=0;exitDy=0;exitPerimeter=0;entryX=0.25;entryY=1;entryDx=0;entryDy=0;" edge="1" parent="1" source="-wlyE-sO2jZst2v2E5xR-238" target="-wlyE-sO2jZst2v2E5xR-236">
          <mxGeometry width="50" height="50" relative="1" as="geometry">
            <mxPoint x="-437.84000000000015" y="376.76" as="sourcePoint" />
            <mxPoint x="-505" y="532" as="targetPoint" />
          </mxGeometry>
        </mxCell>
        <mxCell id="-wlyE-sO2jZst2v2E5xR-241" value="5. insert user" style="text;html=1;align=center;verticalAlign=middle;resizable=0;points=[];autosize=1;strokeColor=none;fillColor=none;" vertex="1" parent="1">
          <mxGeometry x="-314" y="388" width="90" height="30" as="geometry" />
        </mxCell>
        <mxCell id="-wlyE-sO2jZst2v2E5xR-243" value="" style="endArrow=none;dashed=1;html=1;rounded=0;entryX=1;entryY=0.5;entryDx=0;entryDy=0;" edge="1" parent="1" source="-wlyE-sO2jZst2v2E5xR-304" target="-wlyE-sO2jZst2v2E5xR-242">
          <mxGeometry width="50" height="50" relative="1" as="geometry">
            <mxPoint x="-140" y="752" as="sourcePoint" />
            <mxPoint x="-140" y="224" as="targetPoint" />
          </mxGeometry>
        </mxCell>
        <mxCell id="-wlyE-sO2jZst2v2E5xR-242" value="" style="rounded=1;whiteSpace=wrap;html=1;fillColor=#003A70;strokeColor=none;fontColor=#ffffff;rotation=90;" vertex="1" parent="1">
          <mxGeometry x="-165" y="405" width="50" height="20" as="geometry" />
        </mxCell>
        <mxCell id="-wlyE-sO2jZst2v2E5xR-244" value="" style="endArrow=none;html=1;rounded=0;entryX=0.75;entryY=0;entryDx=0;entryDy=0;exitX=-0.024;exitY=0.519;exitDx=0;exitDy=0;exitPerimeter=0;" edge="1" parent="1" source="-wlyE-sO2jZst2v2E5xR-241" target="-wlyE-sO2jZst2v2E5xR-236">
          <mxGeometry width="50" height="50" relative="1" as="geometry">
            <mxPoint x="-295" y="592" as="sourcePoint" />
            <mxPoint x="-245" y="542" as="targetPoint" />
          </mxGeometry>
        </mxCell>
        <mxCell id="-wlyE-sO2jZst2v2E5xR-245" value="" style="endArrow=classic;html=1;rounded=0;exitX=1.047;exitY=0.451;exitDx=0;exitDy=0;exitPerimeter=0;entryX=0.25;entryY=1;entryDx=0;entryDy=0;" edge="1" parent="1" source="-wlyE-sO2jZst2v2E5xR-241" target="-wlyE-sO2jZst2v2E5xR-242">
          <mxGeometry width="50" height="50" relative="1" as="geometry">
            <mxPoint x="-265" y="562" as="sourcePoint" />
            <mxPoint x="-215" y="512" as="targetPoint" />
          </mxGeometry>
        </mxCell>
        <mxCell id="-wlyE-sO2jZst2v2E5xR-264" value="" style="edgeStyle=orthogonalEdgeStyle;rounded=0;orthogonalLoop=1;jettySize=auto;html=1;" edge="1" parent="1" source="-wlyE-sO2jZst2v2E5xR-246" target="-wlyE-sO2jZst2v2E5xR-257">
          <mxGeometry relative="1" as="geometry" />
        </mxCell>
        <mxCell id="-wlyE-sO2jZst2v2E5xR-246" value="6. response: &lt;br&gt;{ code: 200, message: &#39;success&#39;}" style="text;html=1;align=left;verticalAlign=middle;resizable=0;points=[];autosize=1;strokeColor=none;fillColor=none;" vertex="1" parent="1">
          <mxGeometry x="-620" y="436" width="200" height="40" as="geometry" />
        </mxCell>
        <mxCell id="-wlyE-sO2jZst2v2E5xR-265" style="edgeStyle=orthogonalEdgeStyle;rounded=0;orthogonalLoop=1;jettySize=auto;html=1;entryX=0.5;entryY=0;entryDx=0;entryDy=0;" edge="1" parent="1" source="-wlyE-sO2jZst2v2E5xR-247" target="-wlyE-sO2jZst2v2E5xR-259">
          <mxGeometry relative="1" as="geometry" />
        </mxCell>
        <mxCell id="-wlyE-sO2jZst2v2E5xR-247" value="6. response:&lt;br&gt;{code: 409, message: &#39;Data is invalid&#39;}" style="text;html=1;align=left;verticalAlign=middle;resizable=0;points=[];autosize=1;strokeColor=none;fillColor=none;" vertex="1" parent="1">
          <mxGeometry x="-626" y="501" width="230" height="40" as="geometry" />
        </mxCell>
        <mxCell id="-wlyE-sO2jZst2v2E5xR-263" style="edgeStyle=orthogonalEdgeStyle;rounded=0;orthogonalLoop=1;jettySize=auto;html=1;entryX=0.5;entryY=0;entryDx=0;entryDy=0;" edge="1" parent="1" source="-wlyE-sO2jZst2v2E5xR-248" target="-wlyE-sO2jZst2v2E5xR-261">
          <mxGeometry relative="1" as="geometry" />
        </mxCell>
        <mxCell id="-wlyE-sO2jZst2v2E5xR-248" value="6. response:&lt;br&gt;{code: 500, message: &#39;error&#39;}" style="text;html=1;align=left;verticalAlign=middle;resizable=0;points=[];autosize=1;strokeColor=none;fillColor=none;" vertex="1" parent="1">
          <mxGeometry x="-610" y="568" width="180" height="40" as="geometry" />
        </mxCell>
        <mxCell id="-wlyE-sO2jZst2v2E5xR-249" value="" style="rounded=1;whiteSpace=wrap;html=1;fillColor=#003A70;strokeColor=none;fontColor=#ffffff;rotation=90;" vertex="1" parent="1">
          <mxGeometry x="-405" y="446" width="50" height="20" as="geometry" />
        </mxCell>
        <mxCell id="-wlyE-sO2jZst2v2E5xR-251" value="" style="endArrow=none;dashed=1;html=1;rounded=0;entryX=1;entryY=0.5;entryDx=0;entryDy=0;" edge="1" parent="1" source="-wlyE-sO2jZst2v2E5xR-252" target="-wlyE-sO2jZst2v2E5xR-250">
          <mxGeometry width="50" height="50" relative="1" as="geometry">
            <mxPoint x="-375" y="752" as="sourcePoint" />
            <mxPoint x="-380" y="224" as="targetPoint" />
          </mxGeometry>
        </mxCell>
        <mxCell id="-wlyE-sO2jZst2v2E5xR-250" value="" style="rounded=1;whiteSpace=wrap;html=1;fillColor=#003A70;strokeColor=none;fontColor=#ffffff;rotation=90;" vertex="1" parent="1">
          <mxGeometry x="-405" y="512" width="50" height="20" as="geometry" />
        </mxCell>
        <mxCell id="-wlyE-sO2jZst2v2E5xR-253" value="" style="endArrow=none;dashed=1;html=1;rounded=0;entryX=1;entryY=0.5;entryDx=0;entryDy=0;" edge="1" parent="1" source="-wlyE-sO2jZst2v2E5xR-299" target="-wlyE-sO2jZst2v2E5xR-252">
          <mxGeometry width="50" height="50" relative="1" as="geometry">
            <mxPoint x="-380" y="752" as="sourcePoint" />
            <mxPoint x="-380" y="547" as="targetPoint" />
          </mxGeometry>
        </mxCell>
        <mxCell id="-wlyE-sO2jZst2v2E5xR-252" value="" style="rounded=1;whiteSpace=wrap;html=1;fillColor=#003A70;strokeColor=none;fontColor=#ffffff;rotation=90;" vertex="1" parent="1">
          <mxGeometry x="-405" y="582" width="50" height="20" as="geometry" />
        </mxCell>
        <mxCell id="-wlyE-sO2jZst2v2E5xR-254" value="" style="endArrow=none;html=1;rounded=0;entryX=0.5;entryY=1;entryDx=0;entryDy=0;exitX=1.005;exitY=0.495;exitDx=0;exitDy=0;exitPerimeter=0;" edge="1" parent="1" source="-wlyE-sO2jZst2v2E5xR-246" target="-wlyE-sO2jZst2v2E5xR-249">
          <mxGeometry width="50" height="50" relative="1" as="geometry">
            <mxPoint x="-520" y="722" as="sourcePoint" />
            <mxPoint x="-470" y="672" as="targetPoint" />
          </mxGeometry>
        </mxCell>
        <mxCell id="-wlyE-sO2jZst2v2E5xR-255" value="" style="endArrow=none;html=1;rounded=0;entryX=0.5;entryY=1;entryDx=0;entryDy=0;exitX=1.008;exitY=0.513;exitDx=0;exitDy=0;exitPerimeter=0;" edge="1" parent="1" source="-wlyE-sO2jZst2v2E5xR-247" target="-wlyE-sO2jZst2v2E5xR-250">
          <mxGeometry width="50" height="50" relative="1" as="geometry">
            <mxPoint x="-500" y="702" as="sourcePoint" />
            <mxPoint x="-440" y="652" as="targetPoint" />
          </mxGeometry>
        </mxCell>
        <mxCell id="-wlyE-sO2jZst2v2E5xR-256" value="" style="endArrow=none;html=1;rounded=0;entryX=0.5;entryY=1;entryDx=0;entryDy=0;exitX=1;exitY=0.567;exitDx=0;exitDy=0;exitPerimeter=0;" edge="1" parent="1" source="-wlyE-sO2jZst2v2E5xR-248" target="-wlyE-sO2jZst2v2E5xR-252">
          <mxGeometry width="50" height="50" relative="1" as="geometry">
            <mxPoint x="-540" y="712" as="sourcePoint" />
            <mxPoint x="-490" y="662" as="targetPoint" />
          </mxGeometry>
        </mxCell>
        <mxCell id="-wlyE-sO2jZst2v2E5xR-258" value="" style="endArrow=none;dashed=1;html=1;rounded=0;entryX=1;entryY=0.5;entryDx=0;entryDy=0;" edge="1" parent="1" source="-wlyE-sO2jZst2v2E5xR-259" target="-wlyE-sO2jZst2v2E5xR-257">
          <mxGeometry width="50" height="50" relative="1" as="geometry">
            <mxPoint x="-655" y="752" as="sourcePoint" />
            <mxPoint x="-655" y="387" as="targetPoint" />
          </mxGeometry>
        </mxCell>
        <mxCell id="-wlyE-sO2jZst2v2E5xR-257" value="" style="rounded=1;whiteSpace=wrap;html=1;fillColor=#003A70;strokeColor=none;fontColor=#ffffff;rotation=90;" vertex="1" parent="1">
          <mxGeometry x="-680" y="446" width="50" height="20" as="geometry" />
        </mxCell>
        <mxCell id="-wlyE-sO2jZst2v2E5xR-260" value="" style="endArrow=none;dashed=1;html=1;rounded=0;entryX=1;entryY=0.5;entryDx=0;entryDy=0;" edge="1" parent="1" source="-wlyE-sO2jZst2v2E5xR-261" target="-wlyE-sO2jZst2v2E5xR-259">
          <mxGeometry width="50" height="50" relative="1" as="geometry">
            <mxPoint x="-655" y="752" as="sourcePoint" />
            <mxPoint x="-655" y="481" as="targetPoint" />
          </mxGeometry>
        </mxCell>
        <mxCell id="-wlyE-sO2jZst2v2E5xR-259" value="" style="rounded=1;whiteSpace=wrap;html=1;fillColor=#003A70;strokeColor=none;fontColor=#ffffff;rotation=90;" vertex="1" parent="1">
          <mxGeometry x="-680" y="512" width="50" height="20" as="geometry" />
        </mxCell>
        <mxCell id="-wlyE-sO2jZst2v2E5xR-262" value="" style="endArrow=none;dashed=1;html=1;rounded=0;entryX=1;entryY=0.5;entryDx=0;entryDy=0;" edge="1" parent="1" target="-wlyE-sO2jZst2v2E5xR-261">
          <mxGeometry width="50" height="50" relative="1" as="geometry">
            <mxPoint x="-655" y="820" as="sourcePoint" />
            <mxPoint x="-655" y="615" as="targetPoint" />
          </mxGeometry>
        </mxCell>
        <mxCell id="-wlyE-sO2jZst2v2E5xR-261" value="" style="rounded=1;whiteSpace=wrap;html=1;fillColor=#003A70;strokeColor=none;fontColor=#ffffff;rotation=90;" vertex="1" parent="1">
          <mxGeometry x="-680" y="578" width="50" height="20" as="geometry" />
        </mxCell>
        <mxCell id="-wlyE-sO2jZst2v2E5xR-280" style="edgeStyle=orthogonalEdgeStyle;rounded=0;orthogonalLoop=1;jettySize=auto;html=1;entryX=0.5;entryY=0;entryDx=0;entryDy=0;" edge="1" parent="1" source="-wlyE-sO2jZst2v2E5xR-266" target="-wlyE-sO2jZst2v2E5xR-275">
          <mxGeometry relative="1" as="geometry" />
        </mxCell>
        <mxCell id="-wlyE-sO2jZst2v2E5xR-266" value="7. Show Response" style="text;html=1;align=left;verticalAlign=middle;resizable=0;points=[];autosize=1;strokeColor=none;fillColor=none;" vertex="1" parent="1">
          <mxGeometry x="-845" y="445" width="120" height="30" as="geometry" />
        </mxCell>
        <mxCell id="-wlyE-sO2jZst2v2E5xR-270" value="" style="endArrow=none;html=1;rounded=0;entryX=0.5;entryY=1;entryDx=0;entryDy=0;exitX=0.996;exitY=0.413;exitDx=0;exitDy=0;exitPerimeter=0;" edge="1" parent="1" source="-wlyE-sO2jZst2v2E5xR-266" target="-wlyE-sO2jZst2v2E5xR-257">
          <mxGeometry width="50" height="50" relative="1" as="geometry">
            <mxPoint x="-790" y="652" as="sourcePoint" />
            <mxPoint x="-740" y="602" as="targetPoint" />
          </mxGeometry>
        </mxCell>
        <mxCell id="-wlyE-sO2jZst2v2E5xR-279" style="edgeStyle=orthogonalEdgeStyle;rounded=0;orthogonalLoop=1;jettySize=auto;html=1;entryX=0.5;entryY=0;entryDx=0;entryDy=0;" edge="1" parent="1" source="-wlyE-sO2jZst2v2E5xR-272" target="-wlyE-sO2jZst2v2E5xR-277">
          <mxGeometry relative="1" as="geometry" />
        </mxCell>
        <mxCell id="-wlyE-sO2jZst2v2E5xR-272" value="7. Show Response" style="text;html=1;align=left;verticalAlign=middle;resizable=0;points=[];autosize=1;strokeColor=none;fillColor=none;" vertex="1" parent="1">
          <mxGeometry x="-845" y="536" width="120" height="30" as="geometry" />
        </mxCell>
        <mxCell id="-wlyE-sO2jZst2v2E5xR-273" value="" style="endArrow=none;html=1;rounded=0;entryX=0.5;entryY=1;entryDx=0;entryDy=0;exitX=1.026;exitY=0.47;exitDx=0;exitDy=0;exitPerimeter=0;" edge="1" parent="1" source="-wlyE-sO2jZst2v2E5xR-272" target="-wlyE-sO2jZst2v2E5xR-259">
          <mxGeometry width="50" height="50" relative="1" as="geometry">
            <mxPoint x="-715" y="467" as="sourcePoint" />
            <mxPoint x="-655" y="466" as="targetPoint" />
          </mxGeometry>
        </mxCell>
        <mxCell id="-wlyE-sO2jZst2v2E5xR-274" value="" style="endArrow=none;html=1;rounded=0;entryX=0.5;entryY=1;entryDx=0;entryDy=0;exitX=1.026;exitY=0.47;exitDx=0;exitDy=0;exitPerimeter=0;" edge="1" parent="1" source="-wlyE-sO2jZst2v2E5xR-272" target="-wlyE-sO2jZst2v2E5xR-261">
          <mxGeometry width="50" height="50" relative="1" as="geometry">
            <mxPoint x="-712" y="560" as="sourcePoint" />
            <mxPoint x="-655" y="532" as="targetPoint" />
          </mxGeometry>
        </mxCell>
        <mxCell id="-wlyE-sO2jZst2v2E5xR-276" value="" style="endArrow=none;dashed=1;html=1;rounded=0;entryX=1;entryY=0.5;entryDx=0;entryDy=0;" edge="1" parent="1" source="-wlyE-sO2jZst2v2E5xR-277" target="-wlyE-sO2jZst2v2E5xR-275">
          <mxGeometry width="50" height="50" relative="1" as="geometry">
            <mxPoint x="-895" y="752" as="sourcePoint" />
            <mxPoint x="-895" y="358" as="targetPoint" />
          </mxGeometry>
        </mxCell>
        <mxCell id="-wlyE-sO2jZst2v2E5xR-275" value="" style="rounded=1;whiteSpace=wrap;html=1;fillColor=#003A70;strokeColor=none;fontColor=#ffffff;rotation=90;" vertex="1" parent="1">
          <mxGeometry x="-920" y="446" width="50" height="20" as="geometry" />
        </mxCell>
        <mxCell id="-wlyE-sO2jZst2v2E5xR-278" value="" style="endArrow=none;dashed=1;html=1;rounded=0;entryX=1;entryY=0.5;entryDx=0;entryDy=0;" edge="1" parent="1" target="-wlyE-sO2jZst2v2E5xR-277">
          <mxGeometry width="50" height="50" relative="1" as="geometry">
            <mxPoint x="-895" y="820" as="sourcePoint" />
            <mxPoint x="-895" y="549" as="targetPoint" />
          </mxGeometry>
        </mxCell>
        <mxCell id="-wlyE-sO2jZst2v2E5xR-277" value="" style="rounded=1;whiteSpace=wrap;html=1;fillColor=#003A70;strokeColor=none;fontColor=#ffffff;rotation=90;" vertex="1" parent="1">
          <mxGeometry x="-920" y="541" width="50" height="20" as="geometry" />
        </mxCell>
        <mxCell id="-wlyE-sO2jZst2v2E5xR-291" style="edgeStyle=orthogonalEdgeStyle;rounded=0;orthogonalLoop=1;jettySize=auto;html=1;" edge="1" parent="1">
          <mxGeometry relative="1" as="geometry">
            <mxPoint x="-1122" y="456" as="targetPoint" />
            <mxPoint x="-1102" y="456" as="sourcePoint" />
          </mxGeometry>
        </mxCell>
        <mxCell id="-wlyE-sO2jZst2v2E5xR-281" value="8. navigate to section photo" style="text;html=1;align=left;verticalAlign=middle;resizable=0;points=[];autosize=1;strokeColor=none;fillColor=none;" vertex="1" parent="1">
          <mxGeometry x="-1090" y="441" width="170" height="30" as="geometry" />
        </mxCell>
        <mxCell id="-wlyE-sO2jZst2v2E5xR-288" style="edgeStyle=orthogonalEdgeStyle;rounded=0;orthogonalLoop=1;jettySize=auto;html=1;" edge="1" parent="1" source="-wlyE-sO2jZst2v2E5xR-282">
          <mxGeometry relative="1" as="geometry">
            <mxPoint x="-1110" y="550" as="targetPoint" />
          </mxGeometry>
        </mxCell>
        <mxCell id="-wlyE-sO2jZst2v2E5xR-282" value="8. show error message" style="text;html=1;align=left;verticalAlign=middle;resizable=0;points=[];autosize=1;strokeColor=none;fillColor=none;" vertex="1" parent="1">
          <mxGeometry x="-1080" y="535" width="150" height="30" as="geometry" />
        </mxCell>
        <mxCell id="-wlyE-sO2jZst2v2E5xR-285" value="" style="endArrow=none;html=1;rounded=0;entryX=0.5;entryY=1;entryDx=0;entryDy=0;exitX=1.032;exitY=0.51;exitDx=0;exitDy=0;exitPerimeter=0;" edge="1" parent="1" source="-wlyE-sO2jZst2v2E5xR-282" target="-wlyE-sO2jZst2v2E5xR-277">
          <mxGeometry width="50" height="50" relative="1" as="geometry">
            <mxPoint x="-1017" y="608" as="sourcePoint" />
            <mxPoint x="-960" y="646" as="targetPoint" />
          </mxGeometry>
        </mxCell>
        <mxCell id="-wlyE-sO2jZst2v2E5xR-289" value="" style="endArrow=none;html=1;rounded=0;entryX=0.5;entryY=1;entryDx=0;entryDy=0;exitX=1.011;exitY=0.494;exitDx=0;exitDy=0;exitPerimeter=0;" edge="1" parent="1" source="-wlyE-sO2jZst2v2E5xR-281" target="-wlyE-sO2jZst2v2E5xR-275">
          <mxGeometry width="50" height="50" relative="1" as="geometry">
            <mxPoint x="-1040" y="672" as="sourcePoint" />
            <mxPoint x="-990" y="622" as="targetPoint" />
          </mxGeometry>
        </mxCell>
        <mxCell id="-wlyE-sO2jZst2v2E5xR-294" style="edgeStyle=orthogonalEdgeStyle;rounded=0;orthogonalLoop=1;jettySize=auto;html=1;entryX=0.5;entryY=1;entryDx=0;entryDy=0;" edge="1" parent="1" source="-wlyE-sO2jZst2v2E5xR-292" target="-wlyE-sO2jZst2v2E5xR-293">
          <mxGeometry relative="1" as="geometry" />
        </mxCell>
        <mxCell id="-wlyE-sO2jZst2v2E5xR-292" value="9. Take picture selfie and ktp" style="text;html=1;align=left;verticalAlign=middle;resizable=0;points=[];autosize=1;strokeColor=none;fillColor=none;" vertex="1" parent="1">
          <mxGeometry x="-1110" y="622" width="180" height="30" as="geometry" />
        </mxCell>
        <mxCell id="-wlyE-sO2jZst2v2E5xR-293" value="" style="rounded=1;whiteSpace=wrap;html=1;fillColor=#003A70;strokeColor=none;fontColor=#ffffff;rotation=90;" vertex="1" parent="1">
          <mxGeometry x="-920" y="627" width="50" height="20" as="geometry" />
        </mxCell>
        <mxCell id="-wlyE-sO2jZst2v2E5xR-295" value="" style="rounded=1;whiteSpace=wrap;html=1;fillColor=#003A70;strokeColor=none;fontColor=#ffffff;rotation=90;" vertex="1" parent="1">
          <mxGeometry x="-680" y="643.25" width="50" height="20" as="geometry" />
        </mxCell>
        <mxCell id="-wlyE-sO2jZst2v2E5xR-298" style="edgeStyle=orthogonalEdgeStyle;rounded=0;orthogonalLoop=1;jettySize=auto;html=1;entryX=0.5;entryY=1;entryDx=0;entryDy=0;" edge="1" parent="1" source="-wlyE-sO2jZst2v2E5xR-296" target="-wlyE-sO2jZst2v2E5xR-295">
          <mxGeometry relative="1" as="geometry" />
        </mxCell>
        <mxCell id="-wlyE-sO2jZst2v2E5xR-296" value="10.submit data:&lt;br&gt;{photo_ktp: &#39;BLOB,&lt;br&gt;selfie: &#39;BLOB&#39;,&lt;br&gt;selfie_ktp: &#39;BLOB&#39;}" style="text;html=1;align=left;verticalAlign=middle;resizable=0;points=[];autosize=1;strokeColor=none;fillColor=none;" vertex="1" parent="1">
          <mxGeometry x="-830" y="615" width="120" height="70" as="geometry" />
        </mxCell>
        <mxCell id="-wlyE-sO2jZst2v2E5xR-297" value="" style="endArrow=none;html=1;rounded=0;entryX=0.5;entryY=0;entryDx=0;entryDy=0;exitX=-0.02;exitY=0.447;exitDx=0;exitDy=0;exitPerimeter=0;" edge="1" parent="1" source="-wlyE-sO2jZst2v2E5xR-296" target="-wlyE-sO2jZst2v2E5xR-293">
          <mxGeometry width="50" height="50" relative="1" as="geometry">
            <mxPoint x="-820" y="762" as="sourcePoint" />
            <mxPoint x="-770" y="712" as="targetPoint" />
          </mxGeometry>
        </mxCell>
        <mxCell id="-wlyE-sO2jZst2v2E5xR-300" value="" style="endArrow=none;dashed=1;html=1;rounded=0;entryX=1;entryY=0.5;entryDx=0;entryDy=0;" edge="1" parent="1" source="-wlyE-sO2jZst2v2E5xR-309" target="-wlyE-sO2jZst2v2E5xR-299">
          <mxGeometry width="50" height="50" relative="1" as="geometry">
            <mxPoint x="-380" y="820" as="sourcePoint" />
            <mxPoint x="-380" y="685" as="targetPoint" />
          </mxGeometry>
        </mxCell>
        <mxCell id="-wlyE-sO2jZst2v2E5xR-299" value="" style="rounded=1;whiteSpace=wrap;html=1;fillColor=#003A70;strokeColor=none;fontColor=#ffffff;rotation=90;" vertex="1" parent="1">
          <mxGeometry x="-405" y="658" width="50" height="20" as="geometry" />
        </mxCell>
        <mxCell id="-wlyE-sO2jZst2v2E5xR-303" style="edgeStyle=orthogonalEdgeStyle;rounded=0;orthogonalLoop=1;jettySize=auto;html=1;entryX=0.25;entryY=1;entryDx=0;entryDy=0;" edge="1" parent="1" source="-wlyE-sO2jZst2v2E5xR-301" target="-wlyE-sO2jZst2v2E5xR-299">
          <mxGeometry relative="1" as="geometry" />
        </mxCell>
        <mxCell id="-wlyE-sO2jZst2v2E5xR-301" value="11. verify encrypted info" style="text;html=1;align=center;verticalAlign=middle;resizable=0;points=[];autosize=1;strokeColor=none;fillColor=none;" vertex="1" parent="1">
          <mxGeometry x="-600" y="638.25" width="150" height="30" as="geometry" />
        </mxCell>
        <mxCell id="-wlyE-sO2jZst2v2E5xR-302" value="" style="endArrow=none;html=1;rounded=0;entryX=-0.015;entryY=0.522;entryDx=0;entryDy=0;exitX=0.5;exitY=0;exitDx=0;exitDy=0;entryPerimeter=0;" edge="1" parent="1" source="-wlyE-sO2jZst2v2E5xR-295" target="-wlyE-sO2jZst2v2E5xR-301">
          <mxGeometry width="50" height="50" relative="1" as="geometry">
            <mxPoint x="-822" y="656" as="sourcePoint" />
            <mxPoint x="-875" y="647" as="targetPoint" />
          </mxGeometry>
        </mxCell>
        <mxCell id="-wlyE-sO2jZst2v2E5xR-305" value="" style="endArrow=none;dashed=1;html=1;rounded=0;entryX=1;entryY=0.5;entryDx=0;entryDy=0;" edge="1" parent="1" target="-wlyE-sO2jZst2v2E5xR-304">
          <mxGeometry width="50" height="50" relative="1" as="geometry">
            <mxPoint x="-140" y="820" as="sourcePoint" />
            <mxPoint x="-140" y="508" as="targetPoint" />
          </mxGeometry>
        </mxCell>
        <mxCell id="-wlyE-sO2jZst2v2E5xR-304" value="" style="rounded=1;whiteSpace=wrap;html=1;fillColor=#003A70;strokeColor=none;fontColor=#ffffff;rotation=90;" vertex="1" parent="1">
          <mxGeometry x="-165" y="678" width="50" height="20" as="geometry" />
        </mxCell>
        <mxCell id="-wlyE-sO2jZst2v2E5xR-307" style="edgeStyle=orthogonalEdgeStyle;rounded=0;orthogonalLoop=1;jettySize=auto;html=1;entryX=0.25;entryY=1;entryDx=0;entryDy=0;" edge="1" parent="1" source="-wlyE-sO2jZst2v2E5xR-306" target="-wlyE-sO2jZst2v2E5xR-304">
          <mxGeometry relative="1" as="geometry" />
        </mxCell>
        <mxCell id="-wlyE-sO2jZst2v2E5xR-306" value="12. insert data" style="text;html=1;align=center;verticalAlign=middle;resizable=0;points=[];autosize=1;strokeColor=none;fillColor=none;" vertex="1" parent="1">
          <mxGeometry x="-319" y="658" width="100" height="30" as="geometry" />
        </mxCell>
        <mxCell id="-wlyE-sO2jZst2v2E5xR-308" value="" style="endArrow=none;html=1;rounded=0;entryX=-0.029;entryY=0.403;entryDx=0;entryDy=0;exitX=0.5;exitY=0;exitDx=0;exitDy=0;entryPerimeter=0;" edge="1" parent="1" source="-wlyE-sO2jZst2v2E5xR-299" target="-wlyE-sO2jZst2v2E5xR-306">
          <mxGeometry width="50" height="50" relative="1" as="geometry">
            <mxPoint x="-306" y="414" as="sourcePoint" />
            <mxPoint x="-360" y="413" as="targetPoint" />
          </mxGeometry>
        </mxCell>
        <mxCell id="-wlyE-sO2jZst2v2E5xR-310" value="" style="endArrow=none;dashed=1;html=1;rounded=0;entryX=1;entryY=0.5;entryDx=0;entryDy=0;" edge="1" parent="1" target="-wlyE-sO2jZst2v2E5xR-309">
          <mxGeometry width="50" height="50" relative="1" as="geometry">
            <mxPoint x="-380" y="820" as="sourcePoint" />
            <mxPoint x="-380" y="693" as="targetPoint" />
          </mxGeometry>
        </mxCell>
        <mxCell id="-wlyE-sO2jZst2v2E5xR-309" value="" style="rounded=1;whiteSpace=wrap;html=1;fillColor=#003A70;strokeColor=none;fontColor=#ffffff;rotation=90;" vertex="1" parent="1">
          <mxGeometry x="-405" y="739" width="50" height="20" as="geometry" />
        </mxCell>
        <mxCell id="-wlyE-sO2jZst2v2E5xR-314" style="edgeStyle=orthogonalEdgeStyle;rounded=0;orthogonalLoop=1;jettySize=auto;html=1;" edge="1" parent="1" source="-wlyE-sO2jZst2v2E5xR-311" target="-wlyE-sO2jZst2v2E5xR-313">
          <mxGeometry relative="1" as="geometry" />
        </mxCell>
        <mxCell id="-wlyE-sO2jZst2v2E5xR-311" value="13. response: &lt;br&gt;{ code: 200, message: &#39;success&#39;}" style="text;html=1;align=left;verticalAlign=middle;resizable=0;points=[];autosize=1;strokeColor=none;fillColor=none;" vertex="1" parent="1">
          <mxGeometry x="-611" y="729" width="200" height="40" as="geometry" />
        </mxCell>
        <mxCell id="-wlyE-sO2jZst2v2E5xR-312" value="" style="endArrow=none;html=1;rounded=0;entryX=0.5;entryY=1;entryDx=0;entryDy=0;exitX=1.026;exitY=0.54;exitDx=0;exitDy=0;exitPerimeter=0;" edge="1" parent="1" source="-wlyE-sO2jZst2v2E5xR-311" target="-wlyE-sO2jZst2v2E5xR-309">
          <mxGeometry width="50" height="50" relative="1" as="geometry">
            <mxPoint x="-635" y="663" as="sourcePoint" />
            <mxPoint x="-592" y="664" as="targetPoint" />
          </mxGeometry>
        </mxCell>
        <mxCell id="-wlyE-sO2jZst2v2E5xR-313" value="" style="rounded=1;whiteSpace=wrap;html=1;fillColor=#003A70;strokeColor=none;fontColor=#ffffff;rotation=90;" vertex="1" parent="1">
          <mxGeometry x="-680" y="744" width="50" height="20" as="geometry" />
        </mxCell>
        <mxCell id="-wlyE-sO2jZst2v2E5xR-319" style="edgeStyle=orthogonalEdgeStyle;rounded=0;orthogonalLoop=1;jettySize=auto;html=1;entryX=0.5;entryY=0;entryDx=0;entryDy=0;" edge="1" parent="1" source="-wlyE-sO2jZst2v2E5xR-315" target="-wlyE-sO2jZst2v2E5xR-318">
          <mxGeometry relative="1" as="geometry" />
        </mxCell>
        <mxCell id="-wlyE-sO2jZst2v2E5xR-315" value="14. Show Response" style="text;html=1;align=left;verticalAlign=middle;resizable=0;points=[];autosize=1;strokeColor=none;fillColor=none;" vertex="1" parent="1">
          <mxGeometry x="-845" y="733" width="130" height="30" as="geometry" />
        </mxCell>
        <mxCell id="-wlyE-sO2jZst2v2E5xR-316" value="" style="endArrow=none;html=1;rounded=0;entryX=1.02;entryY=0.392;entryDx=0;entryDy=0;exitX=0.5;exitY=1;exitDx=0;exitDy=0;entryPerimeter=0;" edge="1" parent="1" source="-wlyE-sO2jZst2v2E5xR-313" target="-wlyE-sO2jZst2v2E5xR-315">
          <mxGeometry width="50" height="50" relative="1" as="geometry">
            <mxPoint x="-822" y="656" as="sourcePoint" />
            <mxPoint x="-875" y="647" as="targetPoint" />
          </mxGeometry>
        </mxCell>
        <mxCell id="-wlyE-sO2jZst2v2E5xR-318" value="" style="rounded=1;whiteSpace=wrap;html=1;fillColor=#003A70;strokeColor=none;fontColor=#ffffff;rotation=90;" vertex="1" parent="1">
          <mxGeometry x="-920" y="726" width="50" height="20" as="geometry" />
        </mxCell>
        <mxCell id="-wlyE-sO2jZst2v2E5xR-323" style="edgeStyle=orthogonalEdgeStyle;rounded=0;orthogonalLoop=1;jettySize=auto;html=1;" edge="1" parent="1" source="-wlyE-sO2jZst2v2E5xR-320">
          <mxGeometry relative="1" as="geometry">
            <mxPoint x="-1120" y="735" as="targetPoint" />
          </mxGeometry>
        </mxCell>
        <mxCell id="-wlyE-sO2jZst2v2E5xR-320" value="15. navigate to login page" style="text;html=1;align=left;verticalAlign=middle;resizable=0;points=[];autosize=1;strokeColor=none;fillColor=none;" vertex="1" parent="1">
          <mxGeometry x="-1085" y="720" width="160" height="30" as="geometry" />
        </mxCell>
        <mxCell id="-wlyE-sO2jZst2v2E5xR-322" value="" style="endArrow=none;html=1;rounded=0;entryX=0.5;entryY=1;entryDx=0;entryDy=0;exitX=1.036;exitY=0.578;exitDx=0;exitDy=0;exitPerimeter=0;" edge="1" parent="1" source="-wlyE-sO2jZst2v2E5xR-320" target="-wlyE-sO2jZst2v2E5xR-318">
          <mxGeometry width="50" height="50" relative="1" as="geometry">
            <mxPoint x="-1020" y="830" as="sourcePoint" />
            <mxPoint x="-970" y="780" as="targetPoint" />
          </mxGeometry>
        </mxCell>
        <mxCell id="-wlyE-sO2jZst2v2E5xR-324" value="&lt;h2&gt;Disbursement&lt;/h2&gt;" style="text;html=1;align=center;verticalAlign=middle;resizable=0;points=[];autosize=1;strokeColor=none;fillColor=none;" vertex="1" parent="1">
          <mxGeometry x="2405" y="40" width="140" height="60" as="geometry" />
        </mxCell>
        <mxCell id="-wlyE-sO2jZst2v2E5xR-325" value="user" style="shape=umlActor;verticalLabelPosition=bottom;verticalAlign=top;html=1;outlineConnect=0;" vertex="1" parent="1">
          <mxGeometry x="2405" y="158" width="30" height="60" as="geometry" />
        </mxCell>
        <mxCell id="-wlyE-sO2jZst2v2E5xR-326" value="Home Page" style="rounded=0;whiteSpace=wrap;html=1;" vertex="1" parent="1">
          <mxGeometry x="2600" y="173" width="110" height="36" as="geometry" />
        </mxCell>
        <mxCell id="-wlyE-sO2jZst2v2E5xR-327" value="" style="endArrow=none;dashed=1;html=1;rounded=0;entryX=0.5;entryY=0.5;entryDx=0;entryDy=0;entryPerimeter=0;" edge="1" parent="1" target="-wlyE-sO2jZst2v2E5xR-325">
          <mxGeometry width="50" height="50" relative="1" as="geometry">
            <mxPoint x="2420" y="821.9047619047619" as="sourcePoint" />
            <mxPoint x="2254" y="448" as="targetPoint" />
          </mxGeometry>
        </mxCell>
        <mxCell id="-wlyE-sO2jZst2v2E5xR-328" value=":DisbursementController" style="rounded=0;whiteSpace=wrap;html=1;" vertex="1" parent="1">
          <mxGeometry x="2840" y="170" width="140" height="36" as="geometry" />
        </mxCell>
        <mxCell id="-wlyE-sO2jZst2v2E5xR-329" value=":services" style="rounded=0;whiteSpace=wrap;html=1;" vertex="1" parent="1">
          <mxGeometry x="3105" y="171" width="160" height="36" as="geometry" />
        </mxCell>
        <mxCell id="-wlyE-sO2jZst2v2E5xR-330" value=":ServiceDAO" style="rounded=0;whiteSpace=wrap;html=1;" vertex="1" parent="1">
          <mxGeometry x="3310" y="170" width="160" height="36" as="geometry" />
        </mxCell>
        <mxCell id="-wlyE-sO2jZst2v2E5xR-331" value="" style="endArrow=none;dashed=1;html=1;rounded=0;entryX=0.5;entryY=1;entryDx=0;entryDy=0;" edge="1" parent="1" source="-wlyE-sO2jZst2v2E5xR-335" target="-wlyE-sO2jZst2v2E5xR-326">
          <mxGeometry width="50" height="50" relative="1" as="geometry">
            <mxPoint x="2660" y="768" as="sourcePoint" />
            <mxPoint x="2430" y="198" as="targetPoint" />
          </mxGeometry>
        </mxCell>
        <mxCell id="-wlyE-sO2jZst2v2E5xR-332" value="" style="endArrow=none;dashed=1;html=1;rounded=0;entryX=0.551;entryY=1.016;entryDx=0;entryDy=0;entryPerimeter=0;" edge="1" parent="1" source="-wlyE-sO2jZst2v2E5xR-343" target="-wlyE-sO2jZst2v2E5xR-328">
          <mxGeometry width="50" height="50" relative="1" as="geometry">
            <mxPoint x="2917" y="768" as="sourcePoint" />
            <mxPoint x="2440" y="208" as="targetPoint" />
          </mxGeometry>
        </mxCell>
        <mxCell id="-wlyE-sO2jZst2v2E5xR-333" value="" style="endArrow=none;dashed=1;html=1;rounded=0;entryX=0.5;entryY=1;entryDx=0;entryDy=0;" edge="1" parent="1" target="-wlyE-sO2jZst2v2E5xR-330">
          <mxGeometry width="50" height="50" relative="1" as="geometry">
            <mxPoint x="3390" y="820" as="sourcePoint" />
            <mxPoint x="2450" y="270" as="targetPoint" />
          </mxGeometry>
        </mxCell>
        <mxCell id="-wlyE-sO2jZst2v2E5xR-334" value="" style="endArrow=none;dashed=1;html=1;rounded=0;entryX=0.5;entryY=1;entryDx=0;entryDy=0;" edge="1" parent="1" source="-wlyE-sO2jZst2v2E5xR-351" target="-wlyE-sO2jZst2v2E5xR-329">
          <mxGeometry width="50" height="50" relative="1" as="geometry">
            <mxPoint x="3185" y="768" as="sourcePoint" />
            <mxPoint x="2495" y="228" as="targetPoint" />
          </mxGeometry>
        </mxCell>
        <mxCell id="-wlyE-sO2jZst2v2E5xR-336" value="" style="endArrow=none;dashed=1;html=1;rounded=0;entryX=1;entryY=0.5;entryDx=0;entryDy=0;" edge="1" parent="1" source="-wlyE-sO2jZst2v2E5xR-339" target="-wlyE-sO2jZst2v2E5xR-335">
          <mxGeometry width="50" height="50" relative="1" as="geometry">
            <mxPoint x="2660" y="768" as="sourcePoint" />
            <mxPoint x="2655" y="209" as="targetPoint" />
          </mxGeometry>
        </mxCell>
        <mxCell id="-wlyE-sO2jZst2v2E5xR-335" value="" style="rounded=1;whiteSpace=wrap;html=1;fillColor=#003A70;strokeColor=none;fontColor=#ffffff;rotation=90;" vertex="1" parent="1">
          <mxGeometry x="2630" y="280" width="50" height="20" as="geometry" />
        </mxCell>
        <mxCell id="-wlyE-sO2jZst2v2E5xR-338" style="edgeStyle=orthogonalEdgeStyle;rounded=0;orthogonalLoop=1;jettySize=auto;html=1;entryX=0.5;entryY=1;entryDx=0;entryDy=0;" edge="1" parent="1" source="-wlyE-sO2jZst2v2E5xR-337" target="-wlyE-sO2jZst2v2E5xR-335">
          <mxGeometry relative="1" as="geometry" />
        </mxCell>
        <mxCell id="-wlyE-sO2jZst2v2E5xR-337" value="1. Navigate to()" style="text;html=1;align=center;verticalAlign=middle;resizable=0;points=[];autosize=1;strokeColor=none;fillColor=none;" vertex="1" parent="1">
          <mxGeometry x="2435" y="275" width="110" height="30" as="geometry" />
        </mxCell>
        <mxCell id="-wlyE-sO2jZst2v2E5xR-340" value="" style="endArrow=none;dashed=1;html=1;rounded=0;entryX=1;entryY=0.5;entryDx=0;entryDy=0;" edge="1" parent="1" source="-wlyE-sO2jZst2v2E5xR-370" target="-wlyE-sO2jZst2v2E5xR-339">
          <mxGeometry width="50" height="50" relative="1" as="geometry">
            <mxPoint x="2660" y="768" as="sourcePoint" />
            <mxPoint x="2655" y="315" as="targetPoint" />
          </mxGeometry>
        </mxCell>
        <mxCell id="-wlyE-sO2jZst2v2E5xR-339" value="" style="rounded=1;whiteSpace=wrap;html=1;fillColor=#003A70;strokeColor=none;fontColor=#ffffff;rotation=90;" vertex="1" parent="1">
          <mxGeometry x="2630" y="358" width="50" height="20" as="geometry" />
        </mxCell>
        <mxCell id="-wlyE-sO2jZst2v2E5xR-342" style="edgeStyle=orthogonalEdgeStyle;rounded=0;orthogonalLoop=1;jettySize=auto;html=1;entryX=0.5;entryY=1;entryDx=0;entryDy=0;" edge="1" parent="1" source="-wlyE-sO2jZst2v2E5xR-341" target="-wlyE-sO2jZst2v2E5xR-339">
          <mxGeometry relative="1" as="geometry" />
        </mxCell>
        <mxCell id="-wlyE-sO2jZst2v2E5xR-341" value="2. apply loan" style="text;html=1;align=center;verticalAlign=middle;resizable=0;points=[];autosize=1;strokeColor=none;fillColor=none;" vertex="1" parent="1">
          <mxGeometry x="2465" y="353" width="90" height="30" as="geometry" />
        </mxCell>
        <mxCell id="-wlyE-sO2jZst2v2E5xR-344" value="" style="endArrow=none;dashed=1;html=1;rounded=0;entryX=1;entryY=0.5;entryDx=0;entryDy=0;" edge="1" parent="1" source="-wlyE-sO2jZst2v2E5xR-358" target="-wlyE-sO2jZst2v2E5xR-343">
          <mxGeometry width="50" height="50" relative="1" as="geometry">
            <mxPoint x="2917" y="768" as="sourcePoint" />
            <mxPoint x="2917" y="207" as="targetPoint" />
          </mxGeometry>
        </mxCell>
        <mxCell id="-wlyE-sO2jZst2v2E5xR-343" value="" style="rounded=1;whiteSpace=wrap;html=1;fillColor=#003A70;strokeColor=none;fontColor=#ffffff;rotation=90;" vertex="1" parent="1">
          <mxGeometry x="2890" y="368" width="50" height="20" as="geometry" />
        </mxCell>
        <mxCell id="-wlyE-sO2jZst2v2E5xR-347" style="edgeStyle=orthogonalEdgeStyle;rounded=0;orthogonalLoop=1;jettySize=auto;html=1;entryX=0.25;entryY=1;entryDx=0;entryDy=0;" edge="1" parent="1" source="-wlyE-sO2jZst2v2E5xR-345" target="-wlyE-sO2jZst2v2E5xR-343">
          <mxGeometry relative="1" as="geometry" />
        </mxCell>
        <mxCell id="-wlyE-sO2jZst2v2E5xR-345" value="3. Submit form:&lt;br&gt;{loan_amount: 6000000,&lt;br style=&quot;border-color: var(--border-color);&quot;&gt;loan_tenor :120}" style="text;html=1;align=center;verticalAlign=middle;resizable=0;points=[];autosize=1;strokeColor=none;fillColor=none;" vertex="1" parent="1">
          <mxGeometry x="2715" y="340" width="150" height="60" as="geometry" />
        </mxCell>
        <mxCell id="-wlyE-sO2jZst2v2E5xR-346" value="" style="endArrow=none;html=1;rounded=0;entryX=0.5;entryY=0;entryDx=0;entryDy=0;exitX=-0.018;exitY=0.474;exitDx=0;exitDy=0;exitPerimeter=0;" edge="1" parent="1" source="-wlyE-sO2jZst2v2E5xR-345" target="-wlyE-sO2jZst2v2E5xR-339">
          <mxGeometry width="50" height="50" relative="1" as="geometry">
            <mxPoint x="2750" y="568" as="sourcePoint" />
            <mxPoint x="2800" y="518" as="targetPoint" />
          </mxGeometry>
        </mxCell>
        <mxCell id="-wlyE-sO2jZst2v2E5xR-353" style="edgeStyle=orthogonalEdgeStyle;rounded=0;orthogonalLoop=1;jettySize=auto;html=1;entryX=0.5;entryY=1;entryDx=0;entryDy=0;" edge="1" parent="1" target="-wlyE-sO2jZst2v2E5xR-351">
          <mxGeometry relative="1" as="geometry">
            <mxPoint x="3105" y="381" as="sourcePoint" />
          </mxGeometry>
        </mxCell>
        <mxCell id="-wlyE-sO2jZst2v2E5xR-348" value="4. Verify data&lt;br&gt;POST &lt;br&gt;&#39;/loan-management-service&#39;" style="text;html=1;align=center;verticalAlign=middle;resizable=0;points=[];autosize=1;strokeColor=none;fillColor=none;" vertex="1" parent="1">
          <mxGeometry x="2960" y="354" width="170" height="60" as="geometry" />
        </mxCell>
        <mxCell id="-wlyE-sO2jZst2v2E5xR-350" value="" style="endArrow=none;html=1;rounded=0;entryX=0.5;entryY=0;entryDx=0;entryDy=0;exitX=-0.037;exitY=0.368;exitDx=0;exitDy=0;exitPerimeter=0;" edge="1" parent="1" source="-wlyE-sO2jZst2v2E5xR-348" target="-wlyE-sO2jZst2v2E5xR-343">
          <mxGeometry width="50" height="50" relative="1" as="geometry">
            <mxPoint x="3030" y="508" as="sourcePoint" />
            <mxPoint x="3080" y="458" as="targetPoint" />
          </mxGeometry>
        </mxCell>
        <mxCell id="-wlyE-sO2jZst2v2E5xR-352" value="" style="endArrow=none;dashed=1;html=1;rounded=0;entryX=1;entryY=0.5;entryDx=0;entryDy=0;" edge="1" parent="1" source="-wlyE-sO2jZst2v2E5xR-354" target="-wlyE-sO2jZst2v2E5xR-351">
          <mxGeometry width="50" height="50" relative="1" as="geometry">
            <mxPoint x="3185" y="768" as="sourcePoint" />
            <mxPoint x="3185" y="207" as="targetPoint" />
          </mxGeometry>
        </mxCell>
        <mxCell id="-wlyE-sO2jZst2v2E5xR-351" value="" style="rounded=1;whiteSpace=wrap;html=1;fillColor=#003A70;strokeColor=none;fontColor=#ffffff;rotation=90;" vertex="1" parent="1">
          <mxGeometry x="3160" y="371" width="50" height="20" as="geometry" />
        </mxCell>
        <mxCell id="-wlyE-sO2jZst2v2E5xR-355" value="" style="endArrow=none;dashed=1;html=1;rounded=0;entryX=1;entryY=0.5;entryDx=0;entryDy=0;" edge="1" parent="1" source="-wlyE-sO2jZst2v2E5xR-379" target="-wlyE-sO2jZst2v2E5xR-354">
          <mxGeometry width="50" height="50" relative="1" as="geometry">
            <mxPoint x="3185" y="768" as="sourcePoint" />
            <mxPoint x="3185" y="406" as="targetPoint" />
          </mxGeometry>
        </mxCell>
        <mxCell id="-wlyE-sO2jZst2v2E5xR-354" value="" style="rounded=1;whiteSpace=wrap;html=1;fillColor=#003A70;strokeColor=none;fontColor=#ffffff;rotation=90;" vertex="1" parent="1">
          <mxGeometry x="3160" y="432" width="50" height="20" as="geometry" />
        </mxCell>
        <mxCell id="-wlyE-sO2jZst2v2E5xR-360" style="edgeStyle=orthogonalEdgeStyle;rounded=0;orthogonalLoop=1;jettySize=auto;html=1;entryX=0.5;entryY=0;entryDx=0;entryDy=0;" edge="1" parent="1" source="-wlyE-sO2jZst2v2E5xR-356" target="-wlyE-sO2jZst2v2E5xR-358">
          <mxGeometry relative="1" as="geometry" />
        </mxCell>
        <mxCell id="-wlyE-sO2jZst2v2E5xR-356" value="5. url document&lt;br&gt;GET&lt;br&gt;&#39;/esign-service&#39;" style="text;html=1;align=center;verticalAlign=middle;resizable=0;points=[];autosize=1;strokeColor=none;fillColor=none;" vertex="1" parent="1">
          <mxGeometry x="2990" y="425" width="110" height="60" as="geometry" />
        </mxCell>
        <mxCell id="-wlyE-sO2jZst2v2E5xR-357" value="" style="endArrow=none;html=1;rounded=0;entryX=0.5;entryY=1;entryDx=0;entryDy=0;exitX=1.009;exitY=0.536;exitDx=0;exitDy=0;exitPerimeter=0;" edge="1" parent="1" source="-wlyE-sO2jZst2v2E5xR-356" target="-wlyE-sO2jZst2v2E5xR-354">
          <mxGeometry width="50" height="50" relative="1" as="geometry">
            <mxPoint x="3125" y="442.7500000000002" as="sourcePoint" />
            <mxPoint x="3145" y="518" as="targetPoint" />
          </mxGeometry>
        </mxCell>
        <mxCell id="-wlyE-sO2jZst2v2E5xR-359" value="" style="endArrow=none;dashed=1;html=1;rounded=0;entryX=1;entryY=0.5;entryDx=0;entryDy=0;" edge="1" parent="1" source="-wlyE-sO2jZst2v2E5xR-374" target="-wlyE-sO2jZst2v2E5xR-358">
          <mxGeometry width="50" height="50" relative="1" as="geometry">
            <mxPoint x="2917" y="768" as="sourcePoint" />
            <mxPoint x="2915" y="403" as="targetPoint" />
          </mxGeometry>
        </mxCell>
        <mxCell id="-wlyE-sO2jZst2v2E5xR-358" value="" style="rounded=1;whiteSpace=wrap;html=1;fillColor=#003A70;strokeColor=none;fontColor=#ffffff;rotation=90;" vertex="1" parent="1">
          <mxGeometry x="2890" y="440" width="50" height="20" as="geometry" />
        </mxCell>
        <mxCell id="-wlyE-sO2jZst2v2E5xR-364" style="edgeStyle=orthogonalEdgeStyle;rounded=0;orthogonalLoop=1;jettySize=auto;html=1;entryX=0.5;entryY=0;entryDx=0;entryDy=0;" edge="1" parent="1" source="-wlyE-sO2jZst2v2E5xR-361" target="-wlyE-sO2jZst2v2E5xR-363">
          <mxGeometry relative="1" as="geometry" />
        </mxCell>
        <mxCell id="-wlyE-sO2jZst2v2E5xR-361" value="6. send url" style="text;html=1;align=center;verticalAlign=middle;resizable=0;points=[];autosize=1;strokeColor=none;fillColor=none;" vertex="1" parent="1">
          <mxGeometry x="2745" y="435" width="80" height="30" as="geometry" />
        </mxCell>
        <mxCell id="-wlyE-sO2jZst2v2E5xR-362" value="" style="endArrow=none;html=1;rounded=0;entryX=0.5;entryY=1;entryDx=0;entryDy=0;exitX=1.036;exitY=0.513;exitDx=0;exitDy=0;exitPerimeter=0;" edge="1" parent="1" source="-wlyE-sO2jZst2v2E5xR-361" target="-wlyE-sO2jZst2v2E5xR-358">
          <mxGeometry width="50" height="50" relative="1" as="geometry">
            <mxPoint x="2780" y="568" as="sourcePoint" />
            <mxPoint x="2830" y="518" as="targetPoint" />
          </mxGeometry>
        </mxCell>
        <mxCell id="-wlyE-sO2jZst2v2E5xR-363" value="" style="rounded=1;whiteSpace=wrap;html=1;fillColor=#003A70;strokeColor=none;fontColor=#ffffff;rotation=90;" vertex="1" parent="1">
          <mxGeometry x="2630" y="440" width="50" height="20" as="geometry" />
        </mxCell>
        <mxCell id="-wlyE-sO2jZst2v2E5xR-369" style="edgeStyle=orthogonalEdgeStyle;rounded=0;orthogonalLoop=1;jettySize=auto;html=1;" edge="1" parent="1" source="-wlyE-sO2jZst2v2E5xR-365">
          <mxGeometry relative="1" as="geometry">
            <mxPoint x="2420" y="451" as="targetPoint" />
          </mxGeometry>
        </mxCell>
        <mxCell id="-wlyE-sO2jZst2v2E5xR-365" value="7. show eSign" style="text;html=1;align=center;verticalAlign=middle;resizable=0;points=[];autosize=1;strokeColor=none;fillColor=none;" vertex="1" parent="1">
          <mxGeometry x="2490" y="436" width="100" height="30" as="geometry" />
        </mxCell>
        <mxCell id="-wlyE-sO2jZst2v2E5xR-366" value="" style="endArrow=none;html=1;rounded=0;entryX=0.5;entryY=1;entryDx=0;entryDy=0;exitX=1.007;exitY=0.487;exitDx=0;exitDy=0;exitPerimeter=0;" edge="1" parent="1" source="-wlyE-sO2jZst2v2E5xR-365" target="-wlyE-sO2jZst2v2E5xR-363">
          <mxGeometry width="50" height="50" relative="1" as="geometry">
            <mxPoint x="2510" y="578" as="sourcePoint" />
            <mxPoint x="2560" y="528" as="targetPoint" />
          </mxGeometry>
        </mxCell>
        <mxCell id="-wlyE-sO2jZst2v2E5xR-371" value="" style="endArrow=none;dashed=1;html=1;rounded=0;entryX=1;entryY=0.5;entryDx=0;entryDy=0;" edge="1" parent="1" source="-wlyE-sO2jZst2v2E5xR-416" target="-wlyE-sO2jZst2v2E5xR-370">
          <mxGeometry width="50" height="50" relative="1" as="geometry">
            <mxPoint x="2655" y="820" as="sourcePoint" />
            <mxPoint x="2655" y="445" as="targetPoint" />
          </mxGeometry>
        </mxCell>
        <mxCell id="-wlyE-sO2jZst2v2E5xR-370" value="" style="rounded=1;whiteSpace=wrap;html=1;fillColor=#003A70;strokeColor=none;fontColor=#ffffff;rotation=90;" vertex="1" parent="1">
          <mxGeometry x="2630" y="514" width="50" height="20" as="geometry" />
        </mxCell>
        <mxCell id="-wlyE-sO2jZst2v2E5xR-373" style="edgeStyle=orthogonalEdgeStyle;rounded=0;orthogonalLoop=1;jettySize=auto;html=1;entryX=0.5;entryY=1;entryDx=0;entryDy=0;" edge="1" parent="1" source="-wlyE-sO2jZst2v2E5xR-372" target="-wlyE-sO2jZst2v2E5xR-370">
          <mxGeometry relative="1" as="geometry" />
        </mxCell>
        <mxCell id="-wlyE-sO2jZst2v2E5xR-372" value="8. sign document" style="text;html=1;align=center;verticalAlign=middle;resizable=0;points=[];autosize=1;strokeColor=none;fillColor=none;" vertex="1" parent="1">
          <mxGeometry x="2445" y="506" width="110" height="30" as="geometry" />
        </mxCell>
        <mxCell id="-wlyE-sO2jZst2v2E5xR-375" value="" style="endArrow=none;dashed=1;html=1;rounded=0;entryX=1;entryY=0.5;entryDx=0;entryDy=0;" edge="1" parent="1" source="-wlyE-sO2jZst2v2E5xR-391" target="-wlyE-sO2jZst2v2E5xR-374">
          <mxGeometry width="50" height="50" relative="1" as="geometry">
            <mxPoint x="2917" y="768" as="sourcePoint" />
            <mxPoint x="2915" y="475" as="targetPoint" />
          </mxGeometry>
        </mxCell>
        <mxCell id="-wlyE-sO2jZst2v2E5xR-374" value="" style="rounded=1;whiteSpace=wrap;html=1;fillColor=#003A70;strokeColor=none;fontColor=#ffffff;rotation=90;" vertex="1" parent="1">
          <mxGeometry x="2890" y="526" width="50" height="20" as="geometry" />
        </mxCell>
        <mxCell id="-wlyE-sO2jZst2v2E5xR-378" style="edgeStyle=orthogonalEdgeStyle;rounded=0;orthogonalLoop=1;jettySize=auto;html=1;entryX=0.5;entryY=1;entryDx=0;entryDy=0;" edge="1" parent="1" source="-wlyE-sO2jZst2v2E5xR-376" target="-wlyE-sO2jZst2v2E5xR-374">
          <mxGeometry relative="1" as="geometry" />
        </mxCell>
        <mxCell id="-wlyE-sO2jZst2v2E5xR-376" value="9. sign document" style="text;html=1;align=center;verticalAlign=middle;resizable=0;points=[];autosize=1;strokeColor=none;fillColor=none;" vertex="1" parent="1">
          <mxGeometry x="2730" y="509" width="110" height="30" as="geometry" />
        </mxCell>
        <mxCell id="-wlyE-sO2jZst2v2E5xR-377" value="" style="endArrow=none;html=1;rounded=0;entryX=0.5;entryY=0;entryDx=0;entryDy=0;exitX=-0.043;exitY=0.459;exitDx=0;exitDy=0;exitPerimeter=0;" edge="1" parent="1" source="-wlyE-sO2jZst2v2E5xR-376" target="-wlyE-sO2jZst2v2E5xR-370">
          <mxGeometry width="50" height="50" relative="1" as="geometry">
            <mxPoint x="2760" y="648" as="sourcePoint" />
            <mxPoint x="2810" y="598" as="targetPoint" />
          </mxGeometry>
        </mxCell>
        <mxCell id="-wlyE-sO2jZst2v2E5xR-380" value="" style="endArrow=none;dashed=1;html=1;rounded=0;entryX=1;entryY=0.5;entryDx=0;entryDy=0;" edge="1" parent="1" source="-wlyE-sO2jZst2v2E5xR-397" target="-wlyE-sO2jZst2v2E5xR-379">
          <mxGeometry width="50" height="50" relative="1" as="geometry">
            <mxPoint x="3185" y="768" as="sourcePoint" />
            <mxPoint x="3185" y="467" as="targetPoint" />
          </mxGeometry>
        </mxCell>
        <mxCell id="-wlyE-sO2jZst2v2E5xR-379" value="" style="rounded=1;whiteSpace=wrap;html=1;fillColor=#003A70;strokeColor=none;fontColor=#ffffff;rotation=90;" vertex="1" parent="1">
          <mxGeometry x="3160" y="528" width="50" height="20" as="geometry" />
        </mxCell>
        <mxCell id="-wlyE-sO2jZst2v2E5xR-383" style="edgeStyle=orthogonalEdgeStyle;rounded=0;orthogonalLoop=1;jettySize=auto;html=1;entryX=0.5;entryY=1;entryDx=0;entryDy=0;exitX=1.006;exitY=0.501;exitDx=0;exitDy=0;exitPerimeter=0;" edge="1" parent="1" source="-wlyE-sO2jZst2v2E5xR-381" target="-wlyE-sO2jZst2v2E5xR-379">
          <mxGeometry relative="1" as="geometry">
            <mxPoint x="3130" y="536" as="sourcePoint" />
          </mxGeometry>
        </mxCell>
        <mxCell id="-wlyE-sO2jZst2v2E5xR-381" value="10. sign document&lt;br&gt;POST&lt;br&gt;&#39;/esign-service&#39;" style="text;html=1;align=center;verticalAlign=middle;resizable=0;points=[];autosize=1;strokeColor=none;fillColor=none;" vertex="1" parent="1">
          <mxGeometry x="2985" y="509" width="120" height="60" as="geometry" />
        </mxCell>
        <mxCell id="-wlyE-sO2jZst2v2E5xR-382" value="" style="endArrow=none;html=1;rounded=0;entryX=0.5;entryY=0;entryDx=0;entryDy=0;exitX=-0.002;exitY=0.44;exitDx=0;exitDy=0;exitPerimeter=0;" edge="1" parent="1" source="-wlyE-sO2jZst2v2E5xR-381" target="-wlyE-sO2jZst2v2E5xR-374">
          <mxGeometry width="50" height="50" relative="1" as="geometry">
            <mxPoint x="3000" y="678" as="sourcePoint" />
            <mxPoint x="3050" y="628" as="targetPoint" />
          </mxGeometry>
        </mxCell>
        <mxCell id="-wlyE-sO2jZst2v2E5xR-384" value="" style="endArrow=none;html=1;rounded=0;entryX=0.5;entryY=0;entryDx=0;entryDy=0;exitX=-0.033;exitY=0.433;exitDx=0;exitDy=0;exitPerimeter=0;" edge="1" parent="1" target="-wlyE-sO2jZst2v2E5xR-379">
          <mxGeometry width="50" height="50" relative="1" as="geometry">
            <mxPoint x="3251.7" y="537.99" as="sourcePoint" />
            <mxPoint x="3325" y="578" as="targetPoint" />
          </mxGeometry>
        </mxCell>
        <mxCell id="-wlyE-sO2jZst2v2E5xR-387" style="edgeStyle=orthogonalEdgeStyle;rounded=0;orthogonalLoop=1;jettySize=auto;html=1;entryX=0.25;entryY=1;entryDx=0;entryDy=0;" edge="1" parent="1" source="-wlyE-sO2jZst2v2E5xR-385" target="-wlyE-sO2jZst2v2E5xR-386">
          <mxGeometry relative="1" as="geometry" />
        </mxCell>
        <mxCell id="-wlyE-sO2jZst2v2E5xR-385" value="11. Verify Loan" style="text;html=1;align=center;verticalAlign=middle;resizable=0;points=[];autosize=1;strokeColor=none;fillColor=none;" vertex="1" parent="1">
          <mxGeometry x="3250" y="532" width="100" height="30" as="geometry" />
        </mxCell>
        <mxCell id="-wlyE-sO2jZst2v2E5xR-386" value="" style="rounded=1;whiteSpace=wrap;html=1;fillColor=#003A70;strokeColor=none;fontColor=#ffffff;rotation=90;" vertex="1" parent="1">
          <mxGeometry x="3365" y="549" width="50" height="20" as="geometry" />
        </mxCell>
        <mxCell id="-wlyE-sO2jZst2v2E5xR-388" value="" style="rounded=1;whiteSpace=wrap;html=1;fillColor=#003A70;strokeColor=none;fontColor=#ffffff;rotation=90;" vertex="1" parent="1">
          <mxGeometry x="3160" y="602" width="50" height="20" as="geometry" />
        </mxCell>
        <mxCell id="-wlyE-sO2jZst2v2E5xR-390" value="" style="endArrow=none;html=1;rounded=0;entryX=0.5;entryY=1;entryDx=0;entryDy=0;exitX=1.012;exitY=0.568;exitDx=0;exitDy=0;exitPerimeter=0;" edge="1" parent="1" source="-wlyE-sO2jZst2v2E5xR-394" target="-wlyE-sO2jZst2v2E5xR-388">
          <mxGeometry width="50" height="50" relative="1" as="geometry">
            <mxPoint x="3136" y="613.25" as="sourcePoint" />
            <mxPoint x="3105" y="678" as="targetPoint" />
          </mxGeometry>
        </mxCell>
        <mxCell id="-wlyE-sO2jZst2v2E5xR-392" value="" style="endArrow=none;dashed=1;html=1;rounded=0;entryX=1;entryY=0.5;entryDx=0;entryDy=0;" edge="1" parent="1" source="-wlyE-sO2jZst2v2E5xR-404" target="-wlyE-sO2jZst2v2E5xR-391">
          <mxGeometry width="50" height="50" relative="1" as="geometry">
            <mxPoint x="2917" y="820" as="sourcePoint" />
            <mxPoint x="2915" y="613" as="targetPoint" />
          </mxGeometry>
        </mxCell>
        <mxCell id="-wlyE-sO2jZst2v2E5xR-391" value="" style="rounded=1;whiteSpace=wrap;html=1;fillColor=#003A70;strokeColor=none;fontColor=#ffffff;rotation=90;" vertex="1" parent="1">
          <mxGeometry x="2890" y="602" width="50" height="20" as="geometry" />
        </mxCell>
        <mxCell id="-wlyE-sO2jZst2v2E5xR-408" style="edgeStyle=orthogonalEdgeStyle;rounded=0;orthogonalLoop=1;jettySize=auto;html=1;entryX=0.5;entryY=0;entryDx=0;entryDy=0;" edge="1" parent="1" source="-wlyE-sO2jZst2v2E5xR-394" target="-wlyE-sO2jZst2v2E5xR-391">
          <mxGeometry relative="1" as="geometry" />
        </mxCell>
        <mxCell id="-wlyE-sO2jZst2v2E5xR-394" value="12. response: &lt;br&gt;{ code: 200, message: &#39;success&#39;}&lt;br&gt;UpdateLimit()" style="text;html=1;align=left;verticalAlign=middle;resizable=0;points=[];autosize=1;strokeColor=none;fillColor=none;" vertex="1" parent="1">
          <mxGeometry x="2960" y="579" width="200" height="60" as="geometry" />
        </mxCell>
        <mxCell id="-wlyE-sO2jZst2v2E5xR-409" style="edgeStyle=orthogonalEdgeStyle;rounded=0;orthogonalLoop=1;jettySize=auto;html=1;entryX=0.5;entryY=0;entryDx=0;entryDy=0;" edge="1" parent="1" source="-wlyE-sO2jZst2v2E5xR-395" target="-wlyE-sO2jZst2v2E5xR-404">
          <mxGeometry relative="1" as="geometry" />
        </mxCell>
        <mxCell id="-wlyE-sO2jZst2v2E5xR-395" value="12. response:&lt;br&gt;{code: 409,&lt;br&gt;message: &#39;Data is invalid&#39;}" style="text;html=1;align=left;verticalAlign=middle;resizable=0;points=[];autosize=1;strokeColor=none;fillColor=none;" vertex="1" parent="1">
          <mxGeometry x="2990" y="643" width="160" height="60" as="geometry" />
        </mxCell>
        <mxCell id="-wlyE-sO2jZst2v2E5xR-410" style="edgeStyle=orthogonalEdgeStyle;rounded=0;orthogonalLoop=1;jettySize=auto;html=1;entryX=0.5;entryY=0;entryDx=0;entryDy=0;" edge="1" parent="1" source="-wlyE-sO2jZst2v2E5xR-396" target="-wlyE-sO2jZst2v2E5xR-406">
          <mxGeometry relative="1" as="geometry" />
        </mxCell>
        <mxCell id="-wlyE-sO2jZst2v2E5xR-396" value="12. response:&lt;br&gt;{code: 500,&lt;br&gt;message: &#39;error&#39;}" style="text;html=1;align=left;verticalAlign=middle;resizable=0;points=[];autosize=1;strokeColor=none;fillColor=none;" vertex="1" parent="1">
          <mxGeometry x="3020" y="706" width="110" height="60" as="geometry" />
        </mxCell>
        <mxCell id="-wlyE-sO2jZst2v2E5xR-398" value="" style="endArrow=none;dashed=1;html=1;rounded=0;entryX=1;entryY=0.5;entryDx=0;entryDy=0;" edge="1" parent="1" source="-wlyE-sO2jZst2v2E5xR-401" target="-wlyE-sO2jZst2v2E5xR-397">
          <mxGeometry width="50" height="50" relative="1" as="geometry">
            <mxPoint x="3185" y="820" as="sourcePoint" />
            <mxPoint x="3185" y="615" as="targetPoint" />
          </mxGeometry>
        </mxCell>
        <mxCell id="-wlyE-sO2jZst2v2E5xR-397" value="" style="rounded=1;whiteSpace=wrap;html=1;fillColor=#003A70;strokeColor=none;fontColor=#ffffff;rotation=90;" vertex="1" parent="1">
          <mxGeometry x="3160" y="664" width="50" height="20" as="geometry" />
        </mxCell>
        <mxCell id="-wlyE-sO2jZst2v2E5xR-399" value="" style="endArrow=none;html=1;rounded=0;entryX=0.5;entryY=1;entryDx=0;entryDy=0;exitX=1.01;exitY=0.529;exitDx=0;exitDy=0;exitPerimeter=0;" edge="1" parent="1" source="-wlyE-sO2jZst2v2E5xR-395" target="-wlyE-sO2jZst2v2E5xR-397">
          <mxGeometry width="50" height="50" relative="1" as="geometry">
            <mxPoint x="3280" y="708" as="sourcePoint" />
            <mxPoint x="3330" y="658" as="targetPoint" />
          </mxGeometry>
        </mxCell>
        <mxCell id="-wlyE-sO2jZst2v2E5xR-400" value="" style="endArrow=none;html=1;rounded=0;entryX=0.5;entryY=1;entryDx=0;entryDy=0;exitX=1.017;exitY=0.452;exitDx=0;exitDy=0;exitPerimeter=0;" edge="1" parent="1" source="-wlyE-sO2jZst2v2E5xR-396">
          <mxGeometry width="50" height="50" relative="1" as="geometry">
            <mxPoint x="3117.3100000000004" y="733.5800000000002" as="sourcePoint" />
            <mxPoint x="3175" y="734" as="targetPoint" />
          </mxGeometry>
        </mxCell>
        <mxCell id="-wlyE-sO2jZst2v2E5xR-403" value="" style="endArrow=none;dashed=1;html=1;rounded=0;entryX=1;entryY=0.5;entryDx=0;entryDy=0;" edge="1" parent="1" target="-wlyE-sO2jZst2v2E5xR-401">
          <mxGeometry width="50" height="50" relative="1" as="geometry">
            <mxPoint x="3185" y="820" as="sourcePoint" />
            <mxPoint x="3185" y="699" as="targetPoint" />
          </mxGeometry>
        </mxCell>
        <mxCell id="-wlyE-sO2jZst2v2E5xR-401" value="" style="rounded=1;whiteSpace=wrap;html=1;fillColor=#003A70;strokeColor=none;fontColor=#ffffff;rotation=90;" vertex="1" parent="1">
          <mxGeometry x="3160" y="726" width="50" height="20" as="geometry" />
        </mxCell>
        <mxCell id="-wlyE-sO2jZst2v2E5xR-405" value="" style="endArrow=none;dashed=1;html=1;rounded=0;entryX=1;entryY=0.5;entryDx=0;entryDy=0;" edge="1" parent="1" source="-wlyE-sO2jZst2v2E5xR-406" target="-wlyE-sO2jZst2v2E5xR-404">
          <mxGeometry width="50" height="50" relative="1" as="geometry">
            <mxPoint x="2917" y="820" as="sourcePoint" />
            <mxPoint x="2915" y="637" as="targetPoint" />
          </mxGeometry>
        </mxCell>
        <mxCell id="-wlyE-sO2jZst2v2E5xR-404" value="" style="rounded=1;whiteSpace=wrap;html=1;fillColor=#003A70;strokeColor=none;fontColor=#ffffff;rotation=90;" vertex="1" parent="1">
          <mxGeometry x="2890" y="671.25" width="50" height="20" as="geometry" />
        </mxCell>
        <mxCell id="-wlyE-sO2jZst2v2E5xR-407" value="" style="endArrow=none;dashed=1;html=1;rounded=0;entryX=1;entryY=0.5;entryDx=0;entryDy=0;" edge="1" parent="1" target="-wlyE-sO2jZst2v2E5xR-406">
          <mxGeometry width="50" height="50" relative="1" as="geometry">
            <mxPoint x="2915" y="820" as="sourcePoint" />
            <mxPoint x="2915" y="706" as="targetPoint" />
          </mxGeometry>
        </mxCell>
        <mxCell id="-wlyE-sO2jZst2v2E5xR-406" value="" style="rounded=1;whiteSpace=wrap;html=1;fillColor=#003A70;strokeColor=none;fontColor=#ffffff;rotation=90;" vertex="1" parent="1">
          <mxGeometry x="2890" y="733" width="50" height="20" as="geometry" />
        </mxCell>
        <mxCell id="-wlyE-sO2jZst2v2E5xR-420" style="edgeStyle=orthogonalEdgeStyle;rounded=0;orthogonalLoop=1;jettySize=auto;html=1;entryX=0.5;entryY=0;entryDx=0;entryDy=0;" edge="1" parent="1" source="-wlyE-sO2jZst2v2E5xR-411" target="-wlyE-sO2jZst2v2E5xR-416">
          <mxGeometry relative="1" as="geometry" />
        </mxCell>
        <mxCell id="-wlyE-sO2jZst2v2E5xR-411" value="13. handle response" style="text;html=1;align=center;verticalAlign=middle;resizable=0;points=[];autosize=1;strokeColor=none;fillColor=none;" vertex="1" parent="1">
          <mxGeometry x="2730" y="596" width="130" height="30" as="geometry" />
        </mxCell>
        <mxCell id="-wlyE-sO2jZst2v2E5xR-421" style="edgeStyle=orthogonalEdgeStyle;rounded=0;orthogonalLoop=1;jettySize=auto;html=1;entryX=0.5;entryY=0;entryDx=0;entryDy=0;" edge="1" parent="1" source="-wlyE-sO2jZst2v2E5xR-412" target="-wlyE-sO2jZst2v2E5xR-418">
          <mxGeometry relative="1" as="geometry" />
        </mxCell>
        <mxCell id="-wlyE-sO2jZst2v2E5xR-412" value="13. handle response" style="text;html=1;align=center;verticalAlign=middle;resizable=0;points=[];autosize=1;strokeColor=none;fillColor=none;" vertex="1" parent="1">
          <mxGeometry x="2710" y="695" width="130" height="30" as="geometry" />
        </mxCell>
        <mxCell id="-wlyE-sO2jZst2v2E5xR-413" value="" style="endArrow=none;html=1;rounded=0;entryX=0.5;entryY=1;entryDx=0;entryDy=0;exitX=1.018;exitY=0.554;exitDx=0;exitDy=0;exitPerimeter=0;" edge="1" parent="1" source="-wlyE-sO2jZst2v2E5xR-411" target="-wlyE-sO2jZst2v2E5xR-391">
          <mxGeometry width="50" height="50" relative="1" as="geometry">
            <mxPoint x="2710" y="810" as="sourcePoint" />
            <mxPoint x="2760" y="760" as="targetPoint" />
          </mxGeometry>
        </mxCell>
        <mxCell id="-wlyE-sO2jZst2v2E5xR-414" value="" style="endArrow=none;html=1;rounded=0;entryX=0.5;entryY=1;entryDx=0;entryDy=0;exitX=1.022;exitY=0.463;exitDx=0;exitDy=0;exitPerimeter=0;" edge="1" parent="1" source="-wlyE-sO2jZst2v2E5xR-412" target="-wlyE-sO2jZst2v2E5xR-404">
          <mxGeometry width="50" height="50" relative="1" as="geometry">
            <mxPoint x="2720" y="820" as="sourcePoint" />
            <mxPoint x="2770" y="770" as="targetPoint" />
          </mxGeometry>
        </mxCell>
        <mxCell id="-wlyE-sO2jZst2v2E5xR-415" value="" style="endArrow=none;html=1;rounded=0;entryX=0.5;entryY=1;entryDx=0;entryDy=0;exitX=0.985;exitY=0.527;exitDx=0;exitDy=0;exitPerimeter=0;" edge="1" parent="1" source="-wlyE-sO2jZst2v2E5xR-412" target="-wlyE-sO2jZst2v2E5xR-406">
          <mxGeometry width="50" height="50" relative="1" as="geometry">
            <mxPoint x="2730" y="830" as="sourcePoint" />
            <mxPoint x="2780" y="780" as="targetPoint" />
          </mxGeometry>
        </mxCell>
        <mxCell id="-wlyE-sO2jZst2v2E5xR-417" value="" style="endArrow=none;dashed=1;html=1;rounded=0;entryX=1;entryY=0.5;entryDx=0;entryDy=0;" edge="1" parent="1" source="-wlyE-sO2jZst2v2E5xR-418" target="-wlyE-sO2jZst2v2E5xR-416">
          <mxGeometry width="50" height="50" relative="1" as="geometry">
            <mxPoint x="2655" y="820" as="sourcePoint" />
            <mxPoint x="2655" y="549" as="targetPoint" />
          </mxGeometry>
        </mxCell>
        <mxCell id="-wlyE-sO2jZst2v2E5xR-416" value="" style="rounded=1;whiteSpace=wrap;html=1;fillColor=#003A70;strokeColor=none;fontColor=#ffffff;rotation=90;" vertex="1" parent="1">
          <mxGeometry x="2630" y="608" width="50" height="20" as="geometry" />
        </mxCell>
        <mxCell id="-wlyE-sO2jZst2v2E5xR-419" value="" style="endArrow=none;dashed=1;html=1;rounded=0;entryX=1;entryY=0.5;entryDx=0;entryDy=0;" edge="1" parent="1" target="-wlyE-sO2jZst2v2E5xR-418">
          <mxGeometry width="50" height="50" relative="1" as="geometry">
            <mxPoint x="2655" y="820" as="sourcePoint" />
            <mxPoint x="2655" y="643" as="targetPoint" />
          </mxGeometry>
        </mxCell>
        <mxCell id="-wlyE-sO2jZst2v2E5xR-418" value="" style="rounded=1;whiteSpace=wrap;html=1;fillColor=#003A70;strokeColor=none;fontColor=#ffffff;rotation=90;" vertex="1" parent="1">
          <mxGeometry x="2630" y="705" width="50" height="20" as="geometry" />
        </mxCell>
        <mxCell id="-wlyE-sO2jZst2v2E5xR-427" style="edgeStyle=orthogonalEdgeStyle;rounded=0;orthogonalLoop=1;jettySize=auto;html=1;" edge="1" parent="1" source="-wlyE-sO2jZst2v2E5xR-423">
          <mxGeometry relative="1" as="geometry">
            <mxPoint x="2420" y="619.5" as="targetPoint" />
          </mxGeometry>
        </mxCell>
        <mxCell id="-wlyE-sO2jZst2v2E5xR-423" value="14. redirect succes page" style="text;html=1;align=center;verticalAlign=middle;resizable=0;points=[];autosize=1;strokeColor=none;fillColor=none;" vertex="1" parent="1">
          <mxGeometry x="2460" y="604.5" width="150" height="30" as="geometry" />
        </mxCell>
        <mxCell id="-wlyE-sO2jZst2v2E5xR-428" style="edgeStyle=orthogonalEdgeStyle;rounded=0;orthogonalLoop=1;jettySize=auto;html=1;" edge="1" parent="1" source="-wlyE-sO2jZst2v2E5xR-424">
          <mxGeometry relative="1" as="geometry">
            <mxPoint x="2420" y="718" as="targetPoint" />
          </mxGeometry>
        </mxCell>
        <mxCell id="-wlyE-sO2jZst2v2E5xR-424" value="14. show error" style="text;html=1;align=center;verticalAlign=middle;resizable=0;points=[];autosize=1;strokeColor=none;fillColor=none;" vertex="1" parent="1">
          <mxGeometry x="2465" y="703" width="100" height="30" as="geometry" />
        </mxCell>
        <mxCell id="-wlyE-sO2jZst2v2E5xR-425" value="" style="endArrow=none;html=1;rounded=0;entryX=0.5;entryY=1;entryDx=0;entryDy=0;exitX=1.037;exitY=0.449;exitDx=0;exitDy=0;exitPerimeter=0;" edge="1" parent="1" source="-wlyE-sO2jZst2v2E5xR-423" target="-wlyE-sO2jZst2v2E5xR-416">
          <mxGeometry width="50" height="50" relative="1" as="geometry">
            <mxPoint x="2520" y="800" as="sourcePoint" />
            <mxPoint x="2570" y="750" as="targetPoint" />
          </mxGeometry>
        </mxCell>
        <mxCell id="-wlyE-sO2jZst2v2E5xR-426" value="" style="endArrow=none;html=1;rounded=0;entryX=0.5;entryY=1;entryDx=0;entryDy=0;exitX=1.021;exitY=0.424;exitDx=0;exitDy=0;exitPerimeter=0;" edge="1" parent="1" source="-wlyE-sO2jZst2v2E5xR-424" target="-wlyE-sO2jZst2v2E5xR-418">
          <mxGeometry width="50" height="50" relative="1" as="geometry">
            <mxPoint x="2530" y="810" as="sourcePoint" />
            <mxPoint x="2580" y="760" as="targetPoint" />
          </mxGeometry>
        </mxCell>
        <mxCell id="-wlyE-sO2jZst2v2E5xR-429" value="&lt;h2&gt;Repayment&lt;/h2&gt;" style="text;html=1;align=center;verticalAlign=middle;resizable=0;points=[];autosize=1;strokeColor=none;fillColor=none;" vertex="1" parent="1">
          <mxGeometry x="3570" y="40" width="120" height="60" as="geometry" />
        </mxCell>
      </root>
    </mxGraphModel>
  </diagram>
</mxfile>
